<mxfile host="app.diagrams.net" agent="Mozilla/5.0 (Windows NT 10.0; Win64; x64) AppleWebKit/537.36 (KHTML, like Gecko) Chrome/131.0.0.0 Safari/537.36" version="24.9.0">
  <diagram name="Seite-1" id="HveVZMX-7LfImhKmhp_b">
    <mxGraphModel dx="5185" dy="2745" grid="1" gridSize="10" guides="1" tooltips="1" connect="1" arrows="1" fold="1" page="1" pageScale="1" pageWidth="4681" pageHeight="3300" math="0" shadow="0">
      <root>
        <mxCell id="0" />
        <mxCell id="1" parent="0" />
        <mxCell id="gvst5AF2a0xxXVvo7113-15" value="restlicher Bezirk" style="edgeStyle=orthogonalEdgeStyle;rounded=0;orthogonalLoop=1;jettySize=auto;html=1;" parent="1" source="cveXAAd5tMvSlIGVYIJ7-2" target="gvst5AF2a0xxXVvo7113-14" edge="1">
          <mxGeometry relative="1" as="geometry" />
        </mxCell>
        <mxCell id="cveXAAd5tMvSlIGVYIJ7-2" value="Standort" style="strokeWidth=2;html=1;shape=mxgraph.flowchart.decision;whiteSpace=wrap;fillColor=#d5e8d4;strokeColor=#82b366;" parent="1" vertex="1">
          <mxGeometry x="1870" y="1600" width="160" height="80" as="geometry" />
        </mxCell>
        <mxCell id="cveXAAd5tMvSlIGVYIJ7-4" value="Industriegebiet&lt;div&gt;Rothenburgsort / Billbrook&lt;/div&gt;" style="endArrow=classic;html=1;rounded=0;exitX=-0.033;exitY=0.514;exitDx=0;exitDy=0;exitPerimeter=0;entryX=0.5;entryY=0;entryDx=0;entryDy=0;" parent="1" source="cveXAAd5tMvSlIGVYIJ7-2" target="aHFnWSv0snW7f39dgXMF-6" edge="1">
          <mxGeometry x="-0.4001" width="50" height="50" relative="1" as="geometry">
            <mxPoint x="1710" y="1710" as="sourcePoint" />
            <mxPoint x="1670" y="1670" as="targetPoint" />
            <Array as="points">
              <mxPoint x="1670" y="1641" />
            </Array>
            <mxPoint as="offset" />
          </mxGeometry>
        </mxCell>
        <mxCell id="aHFnWSv0snW7f39dgXMF-9" value="ja" style="edgeStyle=orthogonalEdgeStyle;rounded=0;orthogonalLoop=1;jettySize=auto;html=1;" parent="1" source="aHFnWSv0snW7f39dgXMF-6" target="aHFnWSv0snW7f39dgXMF-8" edge="1">
          <mxGeometry relative="1" as="geometry" />
        </mxCell>
        <mxCell id="aHFnWSv0snW7f39dgXMF-16" value="kein Verursacher vor Ort" style="edgeStyle=orthogonalEdgeStyle;rounded=0;orthogonalLoop=1;jettySize=auto;html=1;" parent="1" source="aHFnWSv0snW7f39dgXMF-6" target="aHFnWSv0snW7f39dgXMF-15" edge="1">
          <mxGeometry relative="1" as="geometry" />
        </mxCell>
        <mxCell id="aHFnWSv0snW7f39dgXMF-6" value="&lt;div style=&quot;line-height: 100%;&quot;&gt;&lt;font style=&quot;font-size: 10px;&quot;&gt;Verursacher&lt;/font&gt;&lt;/div&gt;&lt;div style=&quot;line-height: 100%;&quot;&gt;&lt;font style=&quot;font-size: 11px;&quot;&gt;&lt;font style=&quot;font-size: 10px;&quot;&gt;ermitteln&lt;/font&gt;&lt;br&gt;&lt;/font&gt;&lt;/div&gt;" style="rhombus;whiteSpace=wrap;html=1;rounded=1;arcSize=14;strokeWidth=2;" parent="1" vertex="1">
          <mxGeometry x="1615" y="1770" width="110" height="40" as="geometry" />
        </mxCell>
        <mxCell id="aHFnWSv0snW7f39dgXMF-11" value="" style="edgeStyle=orthogonalEdgeStyle;rounded=0;orthogonalLoop=1;jettySize=auto;html=1;" parent="1" source="aHFnWSv0snW7f39dgXMF-8" target="aHFnWSv0snW7f39dgXMF-10" edge="1">
          <mxGeometry relative="1" as="geometry" />
        </mxCell>
        <mxCell id="aHFnWSv0snW7f39dgXMF-8" value="&lt;div&gt;mündl. Beseitigungs-&lt;/div&gt;&lt;div&gt;Anordnung&lt;br&gt;&lt;/div&gt;" style="whiteSpace=wrap;html=1;rounded=1;arcSize=14;strokeWidth=2;" parent="1" vertex="1">
          <mxGeometry x="1390" y="1760" width="160" height="60" as="geometry" />
        </mxCell>
        <mxCell id="aHFnWSv0snW7f39dgXMF-13" value="" style="edgeStyle=orthogonalEdgeStyle;rounded=0;orthogonalLoop=1;jettySize=auto;html=1;" parent="1" source="aHFnWSv0snW7f39dgXMF-10" target="aHFnWSv0snW7f39dgXMF-12" edge="1">
          <mxGeometry relative="1" as="geometry" />
        </mxCell>
        <mxCell id="aHFnWSv0snW7f39dgXMF-10" value="Personalien Ermitteln" style="whiteSpace=wrap;html=1;rounded=1;arcSize=14;strokeWidth=2;" parent="1" vertex="1">
          <mxGeometry x="1410" y="1900" width="120" height="60" as="geometry" />
        </mxCell>
        <mxCell id="aHFnWSv0snW7f39dgXMF-12" value="ggf. Bußgeld / &lt;font style=&quot;font-size: 9px;&quot;&gt;Sondernutzungsgebühr&lt;/font&gt;" style="whiteSpace=wrap;html=1;rounded=1;arcSize=14;strokeWidth=2;fillColor=#dae8fc;strokeColor=#6c8ebf;" parent="1" vertex="1">
          <mxGeometry x="1410" y="2040" width="120" height="60" as="geometry" />
        </mxCell>
        <mxCell id="aHFnWSv0snW7f39dgXMF-18" value="" style="edgeStyle=orthogonalEdgeStyle;rounded=0;orthogonalLoop=1;jettySize=auto;html=1;" parent="1" source="aHFnWSv0snW7f39dgXMF-15" target="aHFnWSv0snW7f39dgXMF-17" edge="1">
          <mxGeometry relative="1" as="geometry" />
        </mxCell>
        <mxCell id="aHFnWSv0snW7f39dgXMF-15" value="&lt;div&gt;gelbe Plakette&lt;/div&gt;&lt;div&gt;Frist: 24h&lt;br&gt;&lt;/div&gt;" style="whiteSpace=wrap;html=1;rounded=1;arcSize=14;strokeWidth=2;" parent="1" vertex="1">
          <mxGeometry x="1900" y="1760" width="120" height="60" as="geometry" />
        </mxCell>
        <mxCell id="aHFnWSv0snW7f39dgXMF-22" value="&lt;div&gt;nein&lt;/div&gt;" style="edgeStyle=orthogonalEdgeStyle;rounded=0;orthogonalLoop=1;jettySize=auto;html=1;" parent="1" source="aHFnWSv0snW7f39dgXMF-17" target="aHFnWSv0snW7f39dgXMF-21" edge="1">
          <mxGeometry relative="1" as="geometry" />
        </mxCell>
        <mxCell id="aHFnWSv0snW7f39dgXMF-28" value="ja" style="edgeStyle=orthogonalEdgeStyle;rounded=0;orthogonalLoop=1;jettySize=auto;html=1;entryX=0.5;entryY=0;entryDx=0;entryDy=0;" parent="1" source="aHFnWSv0snW7f39dgXMF-17" target="0-Z-aFg5bhClTdzB51h3-74" edge="1">
          <mxGeometry relative="1" as="geometry">
            <mxPoint x="2000" y="2020" as="targetPoint" />
          </mxGeometry>
        </mxCell>
        <mxCell id="aHFnWSv0snW7f39dgXMF-17" value="&lt;div&gt;&lt;font style=&quot;font-size: 11px;&quot;&gt;Fahrzeug noch&lt;/font&gt;&lt;/div&gt;vor Ort" style="rhombus;whiteSpace=wrap;html=1;rounded=1;arcSize=14;strokeWidth=2;" parent="1" vertex="1">
          <mxGeometry x="1890" y="1890" width="140" height="60" as="geometry" />
        </mxCell>
        <mxCell id="aHFnWSv0snW7f39dgXMF-24" value="nein" style="edgeStyle=orthogonalEdgeStyle;rounded=0;orthogonalLoop=1;jettySize=auto;html=1;entryX=0.5;entryY=0;entryDx=0;entryDy=0;entryPerimeter=0;" parent="1" source="aHFnWSv0snW7f39dgXMF-21" target="aHFnWSv0snW7f39dgXMF-43" edge="1">
          <mxGeometry relative="1" as="geometry">
            <mxPoint x="1630" y="2039.9999999999995" as="targetPoint" />
          </mxGeometry>
        </mxCell>
        <mxCell id="aHFnWSv0snW7f39dgXMF-26" value="ja" style="edgeStyle=orthogonalEdgeStyle;rounded=0;orthogonalLoop=1;jettySize=auto;html=1;" parent="1" source="aHFnWSv0snW7f39dgXMF-21" target="aHFnWSv0snW7f39dgXMF-25" edge="1">
          <mxGeometry relative="1" as="geometry" />
        </mxCell>
        <mxCell id="aHFnWSv0snW7f39dgXMF-21" value="&lt;div&gt;Identifikations-&lt;/div&gt;&lt;div&gt;merkmale&lt;/div&gt;" style="rhombus;whiteSpace=wrap;html=1;rounded=1;arcSize=14;strokeWidth=2;" parent="1" vertex="1">
          <mxGeometry x="1700" y="1880" width="140" height="80" as="geometry" />
        </mxCell>
        <mxCell id="aHFnWSv0snW7f39dgXMF-25" value="ggf. Bußgeld / &lt;font style=&quot;font-size: 9px;&quot;&gt;Sondernutzungsgebühr&lt;/font&gt;" style="whiteSpace=wrap;html=1;rounded=1;arcSize=14;strokeWidth=2;fillColor=#dae8fc;strokeColor=#6c8ebf;" parent="1" vertex="1">
          <mxGeometry x="1710" y="2040" width="120" height="60" as="geometry" />
        </mxCell>
        <mxCell id="aHFnWSv0snW7f39dgXMF-52" value="ja" style="edgeStyle=orthogonalEdgeStyle;rounded=0;orthogonalLoop=1;jettySize=auto;html=1;" parent="1" source="aHFnWSv0snW7f39dgXMF-29" target="aHFnWSv0snW7f39dgXMF-51" edge="1">
          <mxGeometry relative="1" as="geometry" />
        </mxCell>
        <mxCell id="aHFnWSv0snW7f39dgXMF-29" value="Gefahrenzustand" style="rhombus;whiteSpace=wrap;html=1;strokeWidth=2;fillColor=#d5e8d4;strokeColor=#82b366;" parent="1" vertex="1">
          <mxGeometry x="1870" y="1280" width="160" height="80" as="geometry" />
        </mxCell>
        <mxCell id="aHFnWSv0snW7f39dgXMF-31" value="nein" style="endArrow=classic;html=1;rounded=0;exitX=0.5;exitY=1;exitDx=0;exitDy=0;entryX=0.5;entryY=0;entryDx=0;entryDy=0;entryPerimeter=0;" parent="1" source="aHFnWSv0snW7f39dgXMF-29" target="cveXAAd5tMvSlIGVYIJ7-2" edge="1">
          <mxGeometry width="50" height="50" relative="1" as="geometry">
            <mxPoint x="1660" y="1440" as="sourcePoint" />
            <mxPoint x="1710" y="1390" as="targetPoint" />
            <Array as="points" />
          </mxGeometry>
        </mxCell>
        <mxCell id="aHFnWSv0snW7f39dgXMF-39" value="&lt;div&gt;nein&lt;/div&gt;" style="edgeStyle=orthogonalEdgeStyle;rounded=0;orthogonalLoop=1;jettySize=auto;html=1;" parent="1" source="aHFnWSv0snW7f39dgXMF-36" target="aHFnWSv0snW7f39dgXMF-38" edge="1">
          <mxGeometry relative="1" as="geometry" />
        </mxCell>
        <mxCell id="aHFnWSv0snW7f39dgXMF-36" value="gültige Kennzeichen" style="rhombus;whiteSpace=wrap;html=1;rounded=1;arcSize=14;strokeWidth=2;fillColor=#d5e8d4;strokeColor=#82b366;" parent="1" vertex="1">
          <mxGeometry x="1210" y="760" width="200" height="80" as="geometry" />
        </mxCell>
        <mxCell id="aHFnWSv0snW7f39dgXMF-47" value="&lt;div&gt;nein&lt;/div&gt;" style="edgeStyle=orthogonalEdgeStyle;rounded=0;orthogonalLoop=1;jettySize=auto;html=1;" parent="1" source="aHFnWSv0snW7f39dgXMF-38" target="aHFnWSv0snW7f39dgXMF-46" edge="1">
          <mxGeometry relative="1" as="geometry" />
        </mxCell>
        <mxCell id="gvst5AF2a0xxXVvo7113-8" value="ja" style="edgeStyle=orthogonalEdgeStyle;rounded=0;orthogonalLoop=1;jettySize=auto;html=1;" parent="1" source="aHFnWSv0snW7f39dgXMF-38" target="gvst5AF2a0xxXVvo7113-7" edge="1">
          <mxGeometry relative="1" as="geometry" />
        </mxCell>
        <mxCell id="aHFnWSv0snW7f39dgXMF-38" value="Hinweise auf&lt;div&gt;Kennzeichendiebstahl?&lt;/div&gt;" style="rhombus;whiteSpace=wrap;html=1;rounded=1;arcSize=14;strokeWidth=2;fillColor=#d5e8d4;strokeColor=#82b366;" parent="1" vertex="1">
          <mxGeometry x="1530" y="760" width="200" height="80" as="geometry" />
        </mxCell>
        <mxCell id="aHFnWSv0snW7f39dgXMF-43" value="Vorgang abschließen" style="strokeWidth=2;html=1;shape=mxgraph.flowchart.terminator;whiteSpace=wrap;fillColor=#f8cecc;strokeColor=#b85450;" parent="1" vertex="1">
          <mxGeometry x="1580" y="2040" width="100" height="60" as="geometry" />
        </mxCell>
        <mxCell id="aHFnWSv0snW7f39dgXMF-44" value="&lt;div&gt;ja&lt;/div&gt;" style="endArrow=classic;html=1;rounded=0;exitX=0;exitY=0.5;exitDx=0;exitDy=0;entryX=1;entryY=0.5;entryDx=0;entryDy=0;" parent="1" source="aHFnWSv0snW7f39dgXMF-36" target="gvst5AF2a0xxXVvo7113-2" edge="1">
          <mxGeometry width="50" height="50" relative="1" as="geometry">
            <mxPoint x="1300" y="885" as="sourcePoint" />
            <mxPoint x="1180" y="845" as="targetPoint" />
          </mxGeometry>
        </mxCell>
        <mxCell id="aHFnWSv0snW7f39dgXMF-50" value="ja" style="edgeStyle=orthogonalEdgeStyle;rounded=0;orthogonalLoop=1;jettySize=auto;html=1;" parent="1" source="aHFnWSv0snW7f39dgXMF-46" target="aHFnWSv0snW7f39dgXMF-49" edge="1">
          <mxGeometry relative="1" as="geometry" />
        </mxCell>
        <mxCell id="aHFnWSv0snW7f39dgXMF-46" value="&lt;div&gt;Hinweise auf&lt;/div&gt;&lt;div&gt;Zulassung&lt;/div&gt;&lt;div&gt;im Ausland&lt;/div&gt;" style="rhombus;whiteSpace=wrap;html=1;rounded=1;arcSize=14;strokeWidth=2;fillColor=#d5e8d4;strokeColor=#82b366;" parent="1" vertex="1">
          <mxGeometry x="1850" y="760" width="200" height="80" as="geometry" />
        </mxCell>
        <mxCell id="aHFnWSv0snW7f39dgXMF-48" value="nein" style="endArrow=classic;html=1;rounded=0;exitX=0.5;exitY=1;exitDx=0;exitDy=0;entryX=0.5;entryY=0;entryDx=0;entryDy=0;entryPerimeter=0;" parent="1" source="aHFnWSv0snW7f39dgXMF-46" target="rZ0vq1LoBwSU4AF1OaNH-77" edge="1">
          <mxGeometry x="-0.8851" width="50" height="50" relative="1" as="geometry">
            <mxPoint x="1810" y="1000" as="sourcePoint" />
            <mxPoint x="2060" y="1020" as="targetPoint" />
            <Array as="points" />
            <mxPoint as="offset" />
          </mxGeometry>
        </mxCell>
        <mxCell id="aHFnWSv0snW7f39dgXMF-49" value="&lt;div&gt;Abstimmung mit&lt;/div&gt;&lt;div&gt;MR140&lt;br&gt;&lt;/div&gt;" style="shape=hexagon;perimeter=hexagonPerimeter2;whiteSpace=wrap;html=1;fixedSize=1;rounded=1;arcSize=14;strokeWidth=2;fillColor=#ffe6cc;strokeColor=#d79b00;" parent="1" vertex="1">
          <mxGeometry x="2150" y="760" width="120" height="80" as="geometry" />
        </mxCell>
        <mxCell id="aHFnWSv0snW7f39dgXMF-54" value="nein" style="edgeStyle=orthogonalEdgeStyle;rounded=0;orthogonalLoop=1;jettySize=auto;html=1;" parent="1" source="aHFnWSv0snW7f39dgXMF-51" target="aHFnWSv0snW7f39dgXMF-53" edge="1">
          <mxGeometry relative="1" as="geometry" />
        </mxCell>
        <mxCell id="aHFnWSv0snW7f39dgXMF-51" value="Verursacher ermittelbar" style="rhombus;whiteSpace=wrap;html=1;strokeWidth=2;fillColor=#d5e8d4;strokeColor=#82b366;" parent="1" vertex="1">
          <mxGeometry x="1510" y="1280" width="240" height="80" as="geometry" />
        </mxCell>
        <mxCell id="aHFnWSv0snW7f39dgXMF-60" value="ja" style="edgeStyle=orthogonalEdgeStyle;rounded=0;orthogonalLoop=1;jettySize=auto;html=1;" parent="1" source="aHFnWSv0snW7f39dgXMF-53" target="aHFnWSv0snW7f39dgXMF-59" edge="1">
          <mxGeometry relative="1" as="geometry" />
        </mxCell>
        <mxCell id="aHFnWSv0snW7f39dgXMF-53" value="milderes Mittel" style="rhombus;whiteSpace=wrap;html=1;strokeWidth=2;fillColor=#d5e8d4;strokeColor=#82b366;" parent="1" vertex="1">
          <mxGeometry x="1270" y="1280" width="160" height="80" as="geometry" />
        </mxCell>
        <mxCell id="rZ0vq1LoBwSU4AF1OaNH-81" style="edgeStyle=orthogonalEdgeStyle;rounded=0;orthogonalLoop=1;jettySize=auto;html=1;exitX=0.5;exitY=1;exitDx=0;exitDy=0;entryX=0.5;entryY=0;entryDx=0;entryDy=0;" parent="1" source="aHFnWSv0snW7f39dgXMF-59" target="rZ0vq1LoBwSU4AF1OaNH-79" edge="1">
          <mxGeometry relative="1" as="geometry" />
        </mxCell>
        <mxCell id="aHFnWSv0snW7f39dgXMF-59" value="milderes Mittel anwenden" style="whiteSpace=wrap;html=1;strokeWidth=2;rounded=1;fillColor=#d5e8d4;strokeColor=#82b366;" parent="1" vertex="1">
          <mxGeometry x="1290" y="1440" width="120" height="60" as="geometry" />
        </mxCell>
        <mxCell id="aHFnWSv0snW7f39dgXMF-61" value="nein" style="endArrow=classic;html=1;rounded=0;exitX=0;exitY=0.5;exitDx=0;exitDy=0;entryX=0.5;entryY=0;entryDx=0;entryDy=0;" parent="1" source="aHFnWSv0snW7f39dgXMF-53" target="0-Z-aFg5bhClTdzB51h3-75" edge="1">
          <mxGeometry x="-0.2308" width="50" height="50" relative="1" as="geometry">
            <mxPoint x="1630" y="1390" as="sourcePoint" />
            <mxPoint x="1240" y="1440" as="targetPoint" />
            <Array as="points">
              <mxPoint x="1150" y="1320" />
            </Array>
            <mxPoint as="offset" />
          </mxGeometry>
        </mxCell>
        <mxCell id="gvst5AF2a0xxXVvo7113-1" value="keine Zuständigkeit BZA" style="strokeWidth=2;html=1;shape=mxgraph.flowchart.terminator;whiteSpace=wrap;fillColor=#f8cecc;strokeColor=#b85450;" parent="1" vertex="1">
          <mxGeometry x="1020" y="965" width="100" height="60" as="geometry" />
        </mxCell>
        <mxCell id="gvst5AF2a0xxXVvo7113-6" value="nein" style="edgeStyle=orthogonalEdgeStyle;rounded=0;orthogonalLoop=1;jettySize=auto;html=1;exitX=0;exitY=0.5;exitDx=0;exitDy=0;exitPerimeter=0;" parent="1" source="7TK1gLJYJRCepAhIFpsI-8" target="gvst5AF2a0xxXVvo7113-5" edge="1">
          <mxGeometry relative="1" as="geometry" />
        </mxCell>
        <mxCell id="7TK1gLJYJRCepAhIFpsI-9" style="edgeStyle=orthogonalEdgeStyle;rounded=0;orthogonalLoop=1;jettySize=auto;html=1;exitX=0;exitY=0.5;exitDx=0;exitDy=0;" edge="1" parent="1" source="gvst5AF2a0xxXVvo7113-2" target="7TK1gLJYJRCepAhIFpsI-8">
          <mxGeometry relative="1" as="geometry" />
        </mxCell>
        <mxCell id="gvst5AF2a0xxXVvo7113-2" value="betriebsbereit" style="rhombus;whiteSpace=wrap;html=1;fillColor=#d5e8d4;strokeColor=#82b366;" parent="1" vertex="1">
          <mxGeometry x="990" y="760" width="160" height="80" as="geometry" />
        </mxCell>
        <mxCell id="gvst5AF2a0xxXVvo7113-4" value="&lt;div&gt;ja&lt;/div&gt;" style="endArrow=classic;html=1;rounded=0;exitX=0.5;exitY=1;exitDx=0;exitDy=0;entryX=0.5;entryY=0;entryDx=0;entryDy=0;entryPerimeter=0;" parent="1" source="gvst5AF2a0xxXVvo7113-2" target="gvst5AF2a0xxXVvo7113-1" edge="1">
          <mxGeometry x="-0.4286" width="50" height="50" relative="1" as="geometry">
            <mxPoint x="1100" y="865" as="sourcePoint" />
            <mxPoint x="1150" y="815" as="targetPoint" />
            <Array as="points" />
            <mxPoint as="offset" />
          </mxGeometry>
        </mxCell>
        <mxCell id="gvst5AF2a0xxXVvo7113-5" value="&lt;div&gt;Verwaltungsverfahren&lt;/div&gt;&lt;div&gt;&lt;font style=&quot;font-size: 10px;&quot;&gt;zugelassen jedoch nicht betriebsbereit&lt;/font&gt;&lt;br&gt;&lt;/div&gt;" style="whiteSpace=wrap;html=1;rounded=1;fillColor=#dae8fc;strokeColor=#6c8ebf;" parent="1" vertex="1">
          <mxGeometry x="550" y="770" width="160" height="60" as="geometry" />
        </mxCell>
        <mxCell id="gvst5AF2a0xxXVvo7113-7" value="&lt;div&gt;länger als&lt;/div&gt;&lt;div&gt;1 Monate her&lt;/div&gt;" style="rhombus;whiteSpace=wrap;html=1;rounded=1;arcSize=14;strokeWidth=2;fillColor=#d5e8d4;strokeColor=#82b366;" parent="1" vertex="1">
          <mxGeometry x="1510" y="880" width="240" height="80" as="geometry" />
        </mxCell>
        <mxCell id="gvst5AF2a0xxXVvo7113-9" value="nein" style="endArrow=classic;html=1;rounded=0;exitX=0;exitY=0.5;exitDx=0;exitDy=0;entryX=0.5;entryY=0;entryDx=0;entryDy=0;entryPerimeter=0;" parent="1" source="gvst5AF2a0xxXVvo7113-7" target="gvst5AF2a0xxXVvo7113-1" edge="1">
          <mxGeometry x="-0.8333" width="50" height="50" relative="1" as="geometry">
            <mxPoint x="1125" y="955" as="sourcePoint" />
            <mxPoint x="1175" y="905" as="targetPoint" />
            <Array as="points">
              <mxPoint x="1070" y="920" />
            </Array>
            <mxPoint as="offset" />
          </mxGeometry>
        </mxCell>
        <mxCell id="gvst5AF2a0xxXVvo7113-10" value="Gefahrenzustand" style="rhombus;whiteSpace=wrap;html=1;strokeWidth=2;fillColor=#d5e8d4;strokeColor=#82b366;" parent="1" vertex="1">
          <mxGeometry x="1510" y="1120" width="240" height="80" as="geometry" />
        </mxCell>
        <mxCell id="gvst5AF2a0xxXVvo7113-11" value="ja" style="endArrow=classic;html=1;rounded=0;exitX=0.5;exitY=1;exitDx=0;exitDy=0;entryX=0.5;entryY=0;entryDx=0;entryDy=0;entryPerimeter=0;" parent="1" source="gvst5AF2a0xxXVvo7113-7" target="rZ0vq1LoBwSU4AF1OaNH-74" edge="1">
          <mxGeometry width="50" height="50" relative="1" as="geometry">
            <mxPoint x="1405" y="1045" as="sourcePoint" />
            <mxPoint x="1710" y="975" as="targetPoint" />
          </mxGeometry>
        </mxCell>
        <mxCell id="gvst5AF2a0xxXVvo7113-12" value="ja" style="endArrow=classic;html=1;rounded=0;entryX=0.5;entryY=0;entryDx=0;entryDy=0;exitX=0.5;exitY=1;exitDx=0;exitDy=0;" parent="1" source="gvst5AF2a0xxXVvo7113-10" target="aHFnWSv0snW7f39dgXMF-51" edge="1">
          <mxGeometry width="50" height="50" relative="1" as="geometry">
            <mxPoint x="1375" y="1280" as="sourcePoint" />
            <mxPoint x="1425" y="1230" as="targetPoint" />
            <Array as="points" />
          </mxGeometry>
        </mxCell>
        <mxCell id="gvst5AF2a0xxXVvo7113-13" value="nein" style="endArrow=classic;html=1;rounded=0;entryX=0.5;entryY=1;entryDx=0;entryDy=0;exitX=0;exitY=0.5;exitDx=0;exitDy=0;" parent="1" source="gvst5AF2a0xxXVvo7113-10" target="gvst5AF2a0xxXVvo7113-5" edge="1">
          <mxGeometry x="-0.9204" width="50" height="50" relative="1" as="geometry">
            <mxPoint x="1140" y="1035" as="sourcePoint" />
            <mxPoint x="1190" y="985" as="targetPoint" />
            <Array as="points">
              <mxPoint x="630" y="1160" />
            </Array>
            <mxPoint as="offset" />
          </mxGeometry>
        </mxCell>
        <mxCell id="gvst5AF2a0xxXVvo7113-17" value="ja" style="edgeStyle=orthogonalEdgeStyle;rounded=0;orthogonalLoop=1;jettySize=auto;html=1;" parent="1" source="gvst5AF2a0xxXVvo7113-14" target="gvst5AF2a0xxXVvo7113-16" edge="1">
          <mxGeometry relative="1" as="geometry" />
        </mxCell>
        <mxCell id="gvst5AF2a0xxXVvo7113-40" value="nein" style="edgeStyle=orthogonalEdgeStyle;rounded=0;orthogonalLoop=1;jettySize=auto;html=1;entryX=0.03;entryY=0.506;entryDx=0;entryDy=0;entryPerimeter=0;" parent="1" source="gvst5AF2a0xxXVvo7113-14" target="gvst5AF2a0xxXVvo7113-41" edge="1">
          <mxGeometry relative="1" as="geometry">
            <mxPoint x="2449.9999999999995" y="1799.9999999999998" as="targetPoint" />
          </mxGeometry>
        </mxCell>
        <mxCell id="gvst5AF2a0xxXVvo7113-14" value="&lt;div&gt;Altfahrzeug&lt;/div&gt;&lt;div&gt;gem. Kriterienkatalog&lt;br&gt;&lt;/div&gt;" style="rhombus;whiteSpace=wrap;html=1;strokeWidth=2;" parent="1" vertex="1">
          <mxGeometry x="2130" y="1760" width="200" height="80" as="geometry" />
        </mxCell>
        <mxCell id="gvst5AF2a0xxXVvo7113-19" value="" style="edgeStyle=orthogonalEdgeStyle;rounded=0;orthogonalLoop=1;jettySize=auto;html=1;" parent="1" source="gvst5AF2a0xxXVvo7113-16" target="gvst5AF2a0xxXVvo7113-18" edge="1">
          <mxGeometry relative="1" as="geometry" />
        </mxCell>
        <mxCell id="gvst5AF2a0xxXVvo7113-16" value="&lt;div&gt;rote Plakette&lt;/div&gt;&lt;div&gt;KrWG&lt;br&gt;&lt;/div&gt;" style="rounded=1;whiteSpace=wrap;html=1;strokeWidth=2;" parent="1" vertex="1">
          <mxGeometry x="2170" y="1890" width="120" height="60" as="geometry" />
        </mxCell>
        <mxCell id="gvst5AF2a0xxXVvo7113-29" value="nein" style="edgeStyle=orthogonalEdgeStyle;rounded=0;orthogonalLoop=1;jettySize=auto;html=1;" parent="1" source="gvst5AF2a0xxXVvo7113-18" target="gvst5AF2a0xxXVvo7113-28" edge="1">
          <mxGeometry relative="1" as="geometry" />
        </mxCell>
        <mxCell id="gvst5AF2a0xxXVvo7113-18" value="Identifikationsmerkmale" style="rhombus;whiteSpace=wrap;html=1;rounded=1;strokeWidth=2;" parent="1" vertex="1">
          <mxGeometry x="2130" y="2120" width="200" height="80" as="geometry" />
        </mxCell>
        <mxCell id="gvst5AF2a0xxXVvo7113-32" value="" style="edgeStyle=orthogonalEdgeStyle;rounded=0;orthogonalLoop=1;jettySize=auto;html=1;entryX=0.5;entryY=0;entryDx=0;entryDy=0;" parent="1" source="gvst5AF2a0xxXVvo7113-28" target="7TK1gLJYJRCepAhIFpsI-1" edge="1">
          <mxGeometry relative="1" as="geometry">
            <mxPoint x="2550" y="2310" as="targetPoint" />
          </mxGeometry>
        </mxCell>
        <mxCell id="gvst5AF2a0xxXVvo7113-28" value="&lt;div&gt;Frist abgelaufen&lt;/div&gt;&lt;div&gt;Gründe für Verlängerung?&lt;br&gt;&lt;/div&gt;" style="rhombus;whiteSpace=wrap;html=1;rounded=1;strokeWidth=2;" parent="1" vertex="1">
          <mxGeometry x="2450" y="2120" width="200" height="80" as="geometry" />
        </mxCell>
        <mxCell id="gvst5AF2a0xxXVvo7113-30" value="ja" style="endArrow=classic;html=1;rounded=0;exitX=1;exitY=0.5;exitDx=0;exitDy=0;entryX=0.5;entryY=0;entryDx=0;entryDy=0;" parent="1" source="gvst5AF2a0xxXVvo7113-28" target="gvst5AF2a0xxXVvo7113-28" edge="1">
          <mxGeometry width="50" height="50" relative="1" as="geometry">
            <mxPoint x="2520" y="2150" as="sourcePoint" />
            <mxPoint x="2570" y="2100" as="targetPoint" />
            <Array as="points">
              <mxPoint x="2690" y="2160" />
              <mxPoint x="2690" y="2080" />
              <mxPoint x="2550" y="2080" />
            </Array>
          </mxGeometry>
        </mxCell>
        <mxCell id="gvst5AF2a0xxXVvo7113-44" value="nein" style="edgeStyle=orthogonalEdgeStyle;rounded=0;orthogonalLoop=1;jettySize=auto;html=1;" parent="1" source="gvst5AF2a0xxXVvo7113-41" target="gvst5AF2a0xxXVvo7113-43" edge="1">
          <mxGeometry relative="1" as="geometry" />
        </mxCell>
        <mxCell id="gvst5AF2a0xxXVvo7113-46" value="ja" style="edgeStyle=orthogonalEdgeStyle;rounded=0;orthogonalLoop=1;jettySize=auto;html=1;" parent="1" source="gvst5AF2a0xxXVvo7113-41" target="gvst5AF2a0xxXVvo7113-45" edge="1">
          <mxGeometry relative="1" as="geometry" />
        </mxCell>
        <mxCell id="gvst5AF2a0xxXVvo7113-41" value="Identifikationsmerkmale" style="rhombus;whiteSpace=wrap;html=1;rounded=1;strokeWidth=2;" parent="1" vertex="1">
          <mxGeometry x="2450" y="1760" width="160" height="80" as="geometry" />
        </mxCell>
        <mxCell id="gvst5AF2a0xxXVvo7113-43" value="&lt;div&gt;gelbe Plakette&lt;/div&gt;&lt;div&gt;Frist 7 Tage&lt;br&gt;&lt;/div&gt;" style="rounded=1;whiteSpace=wrap;html=1;strokeWidth=2;" parent="1" vertex="1">
          <mxGeometry x="2470" y="1910" width="120" height="60" as="geometry" />
        </mxCell>
        <mxCell id="0-Z-aFg5bhClTdzB51h3-4" value="" style="edgeStyle=orthogonalEdgeStyle;rounded=0;orthogonalLoop=1;jettySize=auto;html=1;entryX=0;entryY=0.5;entryDx=0;entryDy=0;" parent="1" source="gvst5AF2a0xxXVvo7113-45" target="0-Z-aFg5bhClTdzB51h3-33" edge="1">
          <mxGeometry relative="1" as="geometry">
            <mxPoint x="2900" y="1750" as="targetPoint" />
          </mxGeometry>
        </mxCell>
        <mxCell id="gvst5AF2a0xxXVvo7113-45" value="&lt;div&gt;gelbe Plakette&lt;/div&gt;&lt;div&gt;ohne Fristangabe&lt;br&gt;&lt;/div&gt;" style="rounded=1;whiteSpace=wrap;html=1;strokeWidth=2;" parent="1" vertex="1">
          <mxGeometry x="2700" y="1770" width="130" height="60" as="geometry" />
        </mxCell>
        <mxCell id="0-Z-aFg5bhClTdzB51h3-10" value="" style="edgeStyle=orthogonalEdgeStyle;rounded=0;orthogonalLoop=1;jettySize=auto;html=1;exitX=0.5;exitY=1;exitDx=0;exitDy=0;" parent="1" source="0-Z-aFg5bhClTdzB51h3-34" target="0-Z-aFg5bhClTdzB51h3-9" edge="1">
          <mxGeometry relative="1" as="geometry">
            <mxPoint x="4845" y="240" as="sourcePoint" />
          </mxGeometry>
        </mxCell>
        <mxCell id="0-Z-aFg5bhClTdzB51h3-7" value="&lt;u&gt;&lt;b&gt;Unterprozess&lt;/b&gt;&lt;/u&gt;" style="text;html=1;align=center;verticalAlign=middle;whiteSpace=wrap;rounded=0;" parent="1" vertex="1">
          <mxGeometry x="4765" y="80" width="160" height="30" as="geometry" />
        </mxCell>
        <mxCell id="0-Z-aFg5bhClTdzB51h3-12" value="" style="edgeStyle=orthogonalEdgeStyle;rounded=0;orthogonalLoop=1;jettySize=auto;html=1;" parent="1" source="0-Z-aFg5bhClTdzB51h3-9" target="0-Z-aFg5bhClTdzB51h3-11" edge="1">
          <mxGeometry relative="1" as="geometry" />
        </mxCell>
        <mxCell id="0-Z-aFg5bhClTdzB51h3-9" value="Halterermittlung ZEVIS" style="rounded=1;whiteSpace=wrap;html=1;fillColor=#dae8fc;strokeColor=#6c8ebf;strokeWidth=2;" parent="1" vertex="1">
          <mxGeometry x="4765" y="280" width="160" height="60" as="geometry" />
        </mxCell>
        <mxCell id="0-Z-aFg5bhClTdzB51h3-14" value="ja" style="edgeStyle=orthogonalEdgeStyle;rounded=0;orthogonalLoop=1;jettySize=auto;html=1;" parent="1" source="0-Z-aFg5bhClTdzB51h3-11" target="0-Z-aFg5bhClTdzB51h3-13" edge="1">
          <mxGeometry relative="1" as="geometry" />
        </mxCell>
        <mxCell id="0-Z-aFg5bhClTdzB51h3-11" value="Anschrift Deutschland" style="rhombus;whiteSpace=wrap;html=1;fillColor=#dae8fc;strokeColor=#6c8ebf;rounded=1;strokeWidth=2;" parent="1" vertex="1">
          <mxGeometry x="4765" y="410" width="160" height="80" as="geometry" />
        </mxCell>
        <mxCell id="0-Z-aFg5bhClTdzB51h3-16" value="Meldeanschrift vorhanden" style="edgeStyle=orthogonalEdgeStyle;rounded=0;orthogonalLoop=1;jettySize=auto;html=1;" parent="1" source="0-Z-aFg5bhClTdzB51h3-13" target="0-Z-aFg5bhClTdzB51h3-15" edge="1">
          <mxGeometry relative="1" as="geometry" />
        </mxCell>
        <mxCell id="0-Z-aFg5bhClTdzB51h3-13" value="Meldeüberprüfung" style="rhombus;whiteSpace=wrap;html=1;fillColor=#dae8fc;strokeColor=#6c8ebf;rounded=1;strokeWidth=2;" parent="1" vertex="1">
          <mxGeometry x="4765" y="570" width="160" height="80" as="geometry" />
        </mxCell>
        <mxCell id="0-Z-aFg5bhClTdzB51h3-18" value="" style="edgeStyle=orthogonalEdgeStyle;rounded=0;orthogonalLoop=1;jettySize=auto;html=1;" parent="1" source="0-Z-aFg5bhClTdzB51h3-15" target="0-Z-aFg5bhClTdzB51h3-17" edge="1">
          <mxGeometry relative="1" as="geometry" />
        </mxCell>
        <mxCell id="0-Z-aFg5bhClTdzB51h3-15" value="Beseitigungsverfügung&lt;div&gt;mit Frist&amp;nbsp;&lt;/div&gt;" style="whiteSpace=wrap;html=1;fillColor=#dae8fc;strokeColor=#6c8ebf;rounded=1;strokeWidth=2;" parent="1" vertex="1">
          <mxGeometry x="4765" y="740" width="160" height="60" as="geometry" />
        </mxCell>
        <mxCell id="0-Z-aFg5bhClTdzB51h3-21" value="" style="edgeStyle=orthogonalEdgeStyle;rounded=0;orthogonalLoop=1;jettySize=auto;html=1;" parent="1" source="0-Z-aFg5bhClTdzB51h3-17" target="0-Z-aFg5bhClTdzB51h3-20" edge="1">
          <mxGeometry relative="1" as="geometry" />
        </mxCell>
        <mxCell id="0-Z-aFg5bhClTdzB51h3-17" value="Rückmeldung&lt;div&gt;Verkauf o.ä.&lt;/div&gt;" style="rhombus;whiteSpace=wrap;html=1;fillColor=#dae8fc;strokeColor=#6c8ebf;rounded=1;strokeWidth=2;" parent="1" vertex="1">
          <mxGeometry x="4765" y="870" width="160" height="80" as="geometry" />
        </mxCell>
        <mxCell id="0-Z-aFg5bhClTdzB51h3-19" value="ja" style="endArrow=classic;html=1;rounded=0;entryX=1;entryY=0.5;entryDx=0;entryDy=0;exitX=1;exitY=0.5;exitDx=0;exitDy=0;" parent="1" source="0-Z-aFg5bhClTdzB51h3-17" target="0-Z-aFg5bhClTdzB51h3-15" edge="1">
          <mxGeometry width="50" height="50" relative="1" as="geometry">
            <mxPoint x="4955" y="920" as="sourcePoint" />
            <mxPoint x="4985" y="800" as="targetPoint" />
            <Array as="points">
              <mxPoint x="4965" y="910" />
              <mxPoint x="4965" y="770" />
            </Array>
          </mxGeometry>
        </mxCell>
        <mxCell id="0-Z-aFg5bhClTdzB51h3-25" value="nein" style="edgeStyle=orthogonalEdgeStyle;rounded=0;orthogonalLoop=1;jettySize=auto;html=1;" parent="1" source="0-Z-aFg5bhClTdzB51h3-20" target="0-Z-aFg5bhClTdzB51h3-24" edge="1">
          <mxGeometry relative="1" as="geometry" />
        </mxCell>
        <mxCell id="0-Z-aFg5bhClTdzB51h3-20" value="Verlängerung Frist" style="rhombus;whiteSpace=wrap;html=1;fillColor=#dae8fc;strokeColor=#6c8ebf;rounded=1;strokeWidth=2;" parent="1" vertex="1">
          <mxGeometry x="4765" y="1030" width="160" height="80" as="geometry" />
        </mxCell>
        <mxCell id="0-Z-aFg5bhClTdzB51h3-24" value="Abschleppfreigabe&lt;div&gt;an VS42 mit Entscheidung&amp;nbsp;&lt;/div&gt;&lt;div&gt;Verwertung / Sicherstellung&lt;/div&gt;" style="rounded=1;whiteSpace=wrap;html=1;fillColor=#dae8fc;strokeColor=#6c8ebf;strokeWidth=2;" parent="1" vertex="1">
          <mxGeometry x="4765" y="1200" width="160" height="60" as="geometry" />
        </mxCell>
        <mxCell id="0-Z-aFg5bhClTdzB51h3-26" value="" style="endArrow=classic;html=1;rounded=0;exitX=1;exitY=0.5;exitDx=0;exitDy=0;" parent="1" source="0-Z-aFg5bhClTdzB51h3-20" edge="1">
          <mxGeometry width="50" height="50" relative="1" as="geometry">
            <mxPoint x="4995" y="980" as="sourcePoint" />
            <mxPoint x="4965" y="910" as="targetPoint" />
            <Array as="points">
              <mxPoint x="4965" y="1070" />
            </Array>
          </mxGeometry>
        </mxCell>
        <mxCell id="0-Z-aFg5bhClTdzB51h3-28" value="Ermittlung / Beseitigungsverfügung" style="shape=process;whiteSpace=wrap;html=1;backgroundOutline=1;fillColor=#dae8fc;strokeColor=#6c8ebf;" parent="1" vertex="1">
          <mxGeometry x="1830" y="2130" width="200" height="60" as="geometry" />
        </mxCell>
        <mxCell id="0-Z-aFg5bhClTdzB51h3-31" value="" style="endArrow=classic;html=1;rounded=0;exitX=0;exitY=0.5;exitDx=0;exitDy=0;entryX=1;entryY=0.5;entryDx=0;entryDy=0;" parent="1" source="gvst5AF2a0xxXVvo7113-18" target="0-Z-aFg5bhClTdzB51h3-28" edge="1">
          <mxGeometry width="50" height="50" relative="1" as="geometry">
            <mxPoint x="2010" y="2280" as="sourcePoint" />
            <mxPoint x="2060" y="2230" as="targetPoint" />
          </mxGeometry>
        </mxCell>
        <mxCell id="0-Z-aFg5bhClTdzB51h3-38" value="" style="edgeStyle=orthogonalEdgeStyle;rounded=0;orthogonalLoop=1;jettySize=auto;html=1;" parent="1" source="0-Z-aFg5bhClTdzB51h3-33" target="0-Z-aFg5bhClTdzB51h3-37" edge="1">
          <mxGeometry relative="1" as="geometry" />
        </mxCell>
        <mxCell id="0-Z-aFg5bhClTdzB51h3-33" value="Ermittlung / Beseitigungsverfügung" style="shape=process;whiteSpace=wrap;html=1;backgroundOutline=1;fillColor=#dae8fc;strokeColor=#6c8ebf;" parent="1" vertex="1">
          <mxGeometry x="2930" y="1770" width="200" height="60" as="geometry" />
        </mxCell>
        <mxCell id="0-Z-aFg5bhClTdzB51h3-34" value="Ermittlung / Beseitigungsverfügung" style="shape=process;whiteSpace=wrap;html=1;backgroundOutline=1;fillColor=#dae8fc;strokeColor=#6c8ebf;" parent="1" vertex="1">
          <mxGeometry x="4760" y="157" width="170" height="60" as="geometry" />
        </mxCell>
        <mxCell id="0-Z-aFg5bhClTdzB51h3-40" value="nein" style="edgeStyle=orthogonalEdgeStyle;rounded=0;orthogonalLoop=1;jettySize=auto;html=1;" parent="1" source="0-Z-aFg5bhClTdzB51h3-37" target="0-Z-aFg5bhClTdzB51h3-39" edge="1">
          <mxGeometry relative="1" as="geometry" />
        </mxCell>
        <mxCell id="0-Z-aFg5bhClTdzB51h3-44" value="ja" style="edgeStyle=orthogonalEdgeStyle;rounded=0;orthogonalLoop=1;jettySize=auto;html=1;" parent="1" source="0-Z-aFg5bhClTdzB51h3-37" target="0-Z-aFg5bhClTdzB51h3-43" edge="1">
          <mxGeometry relative="1" as="geometry" />
        </mxCell>
        <mxCell id="0-Z-aFg5bhClTdzB51h3-37" value="Fahrzeug vor Ort" style="rhombus;whiteSpace=wrap;html=1;fillColor=#d5e8d4;strokeColor=#82b366;" parent="1" vertex="1">
          <mxGeometry x="2930" y="1900" width="200" height="80" as="geometry" />
        </mxCell>
        <mxCell id="0-Z-aFg5bhClTdzB51h3-39" value="ggf. Bußgeld /&amp;nbsp;&lt;font style=&quot;font-size: 9px;&quot;&gt;Sondernutzungsgebühr&lt;/font&gt;" style="rounded=1;whiteSpace=wrap;html=1;fillColor=#dae8fc;strokeColor=#6c8ebf;" parent="1" vertex="1">
          <mxGeometry x="3250" y="1910" width="120" height="60" as="geometry" />
        </mxCell>
        <mxCell id="0-Z-aFg5bhClTdzB51h3-43" value="Abschleppauftrag&lt;div&gt;basierend auf MR14&lt;/div&gt;" style="shape=process;whiteSpace=wrap;html=1;backgroundOutline=1;fillColor=#d5e8d4;strokeColor=#82b366;" parent="1" vertex="1">
          <mxGeometry x="2930" y="2070" width="200" height="60" as="geometry" />
        </mxCell>
        <mxCell id="0-Z-aFg5bhClTdzB51h3-47" value="" style="edgeStyle=orthogonalEdgeStyle;rounded=0;orthogonalLoop=1;jettySize=auto;html=1;" parent="1" source="0-Z-aFg5bhClTdzB51h3-45" target="0-Z-aFg5bhClTdzB51h3-46" edge="1">
          <mxGeometry relative="1" as="geometry" />
        </mxCell>
        <mxCell id="0-Z-aFg5bhClTdzB51h3-45" value="Abschleppauftrag erteilt" style="shape=process;whiteSpace=wrap;html=1;backgroundOutline=1;fillColor=#d5e8d4;strokeColor=#82b366;" parent="1" vertex="1">
          <mxGeometry x="5365" y="160" width="200" height="60" as="geometry" />
        </mxCell>
        <mxCell id="0-Z-aFg5bhClTdzB51h3-51" value="verweigert" style="edgeStyle=orthogonalEdgeStyle;rounded=0;orthogonalLoop=1;jettySize=auto;html=1;" parent="1" source="0-Z-aFg5bhClTdzB51h3-46" target="0-Z-aFg5bhClTdzB51h3-50" edge="1">
          <mxGeometry relative="1" as="geometry" />
        </mxCell>
        <mxCell id="0-Z-aFg5bhClTdzB51h3-57" value="ja" style="edgeStyle=orthogonalEdgeStyle;rounded=0;orthogonalLoop=1;jettySize=auto;html=1;" parent="1" source="0-Z-aFg5bhClTdzB51h3-46" target="0-Z-aFg5bhClTdzB51h3-56" edge="1">
          <mxGeometry relative="1" as="geometry" />
        </mxCell>
        <mxCell id="0-Z-aFg5bhClTdzB51h3-69" value="kein Fahrzeug&amp;nbsp;&lt;div&gt;mehr vor Ort&lt;/div&gt;" style="edgeStyle=orthogonalEdgeStyle;rounded=0;orthogonalLoop=1;jettySize=auto;html=1;" parent="1" source="0-Z-aFg5bhClTdzB51h3-46" target="0-Z-aFg5bhClTdzB51h3-68" edge="1">
          <mxGeometry relative="1" as="geometry" />
        </mxCell>
        <mxCell id="0-Z-aFg5bhClTdzB51h3-46" value="Erfolg" style="rhombus;whiteSpace=wrap;html=1;fillColor=#dae8fc;strokeColor=#6c8ebf;" parent="1" vertex="1">
          <mxGeometry x="5405" y="290" width="120" height="80" as="geometry" />
        </mxCell>
        <mxCell id="0-Z-aFg5bhClTdzB51h3-53" value="" style="edgeStyle=orthogonalEdgeStyle;rounded=0;orthogonalLoop=1;jettySize=auto;html=1;" parent="1" source="0-Z-aFg5bhClTdzB51h3-50" target="0-Z-aFg5bhClTdzB51h3-52" edge="1">
          <mxGeometry relative="1" as="geometry" />
        </mxCell>
        <mxCell id="0-Z-aFg5bhClTdzB51h3-50" value="Rückmeldung an&lt;div&gt;VS42 zur Kontrolle&lt;/div&gt;" style="rounded=1;whiteSpace=wrap;html=1;fillColor=#dae8fc;strokeColor=#6c8ebf;" parent="1" vertex="1">
          <mxGeometry x="5965" y="300" width="120" height="60" as="geometry" />
        </mxCell>
        <mxCell id="0-Z-aFg5bhClTdzB51h3-63" value="nein" style="edgeStyle=orthogonalEdgeStyle;rounded=0;orthogonalLoop=1;jettySize=auto;html=1;" parent="1" source="0-Z-aFg5bhClTdzB51h3-52" target="0-Z-aFg5bhClTdzB51h3-62" edge="1">
          <mxGeometry relative="1" as="geometry" />
        </mxCell>
        <mxCell id="0-Z-aFg5bhClTdzB51h3-65" value="ja" style="edgeStyle=orthogonalEdgeStyle;rounded=0;orthogonalLoop=1;jettySize=auto;html=1;" parent="1" source="0-Z-aFg5bhClTdzB51h3-52" target="0-Z-aFg5bhClTdzB51h3-64" edge="1">
          <mxGeometry relative="1" as="geometry" />
        </mxCell>
        <mxCell id="0-Z-aFg5bhClTdzB51h3-52" value="Fahrzeug entfernt" style="rhombus;whiteSpace=wrap;html=1;fillColor=#dae8fc;strokeColor=#6c8ebf;rounded=1;" parent="1" vertex="1">
          <mxGeometry x="5965" y="440" width="120" height="80" as="geometry" />
        </mxCell>
        <mxCell id="0-Z-aFg5bhClTdzB51h3-59" value="Sicherstellung" style="edgeStyle=orthogonalEdgeStyle;rounded=0;orthogonalLoop=1;jettySize=auto;html=1;" parent="1" source="0-Z-aFg5bhClTdzB51h3-56" target="0-Z-aFg5bhClTdzB51h3-58" edge="1">
          <mxGeometry relative="1" as="geometry" />
        </mxCell>
        <mxCell id="0-Z-aFg5bhClTdzB51h3-61" value="Verwertung" style="edgeStyle=orthogonalEdgeStyle;rounded=0;orthogonalLoop=1;jettySize=auto;html=1;" parent="1" source="0-Z-aFg5bhClTdzB51h3-56" target="0-Z-aFg5bhClTdzB51h3-60" edge="1">
          <mxGeometry relative="1" as="geometry" />
        </mxCell>
        <mxCell id="0-Z-aFg5bhClTdzB51h3-56" value="Fahrzeugverbleib" style="rhombus;whiteSpace=wrap;html=1;fillColor=#dae8fc;strokeColor=#6c8ebf;" parent="1" vertex="1">
          <mxGeometry x="5405" y="530" width="120" height="80" as="geometry" />
        </mxCell>
        <mxCell id="0-Z-aFg5bhClTdzB51h3-58" value="" style="rounded=1;whiteSpace=wrap;html=1;fillColor=#dae8fc;strokeColor=#6c8ebf;" parent="1" vertex="1">
          <mxGeometry x="5125" y="540" width="120" height="60" as="geometry" />
        </mxCell>
        <mxCell id="0-Z-aFg5bhClTdzB51h3-60" value="" style="rounded=1;whiteSpace=wrap;html=1;fillColor=#dae8fc;strokeColor=#6c8ebf;" parent="1" vertex="1">
          <mxGeometry x="5605" y="540" width="120" height="60" as="geometry" />
        </mxCell>
        <mxCell id="0-Z-aFg5bhClTdzB51h3-67" value="" style="edgeStyle=orthogonalEdgeStyle;rounded=0;orthogonalLoop=1;jettySize=auto;html=1;entryX=0.5;entryY=0;entryDx=0;entryDy=0;" parent="1" source="0-Z-aFg5bhClTdzB51h3-62" target="0-Z-aFg5bhClTdzB51h3-46" edge="1">
          <mxGeometry relative="1" as="geometry">
            <mxPoint x="5825" y="600" as="targetPoint" />
            <Array as="points">
              <mxPoint x="6325" y="480" />
              <mxPoint x="6325" y="270" />
              <mxPoint x="5465" y="270" />
            </Array>
          </mxGeometry>
        </mxCell>
        <mxCell id="0-Z-aFg5bhClTdzB51h3-62" value="erneuter Auftrag" style="whiteSpace=wrap;html=1;fillColor=#dae8fc;strokeColor=#6c8ebf;rounded=1;" parent="1" vertex="1">
          <mxGeometry x="6165" y="450" width="120" height="60" as="geometry" />
        </mxCell>
        <mxCell id="0-Z-aFg5bhClTdzB51h3-64" value="Gebühren / Bußgeld" style="whiteSpace=wrap;html=1;fillColor=#dae8fc;strokeColor=#6c8ebf;rounded=1;" parent="1" vertex="1">
          <mxGeometry x="5965" y="610" width="120" height="60" as="geometry" />
        </mxCell>
        <mxCell id="0-Z-aFg5bhClTdzB51h3-68" value="" style="rounded=1;whiteSpace=wrap;html=1;fillColor=#dae8fc;strokeColor=#6c8ebf;" parent="1" vertex="1">
          <mxGeometry x="5125" y="300" width="120" height="60" as="geometry" />
        </mxCell>
        <mxCell id="0-Z-aFg5bhClTdzB51h3-74" value="Abschleppauftrag&lt;div&gt;Sicherstellung&lt;/div&gt;" style="shape=process;whiteSpace=wrap;html=1;backgroundOutline=1;fillColor=#d5e8d4;strokeColor=#82b366;" parent="1" vertex="1">
          <mxGeometry x="1860" y="2040" width="200" height="60" as="geometry" />
        </mxCell>
        <mxCell id="rZ0vq1LoBwSU4AF1OaNH-80" value="" style="edgeStyle=orthogonalEdgeStyle;rounded=0;orthogonalLoop=1;jettySize=auto;html=1;" parent="1" source="0-Z-aFg5bhClTdzB51h3-75" target="rZ0vq1LoBwSU4AF1OaNH-79" edge="1">
          <mxGeometry relative="1" as="geometry" />
        </mxCell>
        <mxCell id="0-Z-aFg5bhClTdzB51h3-75" value="Abschleppauftrag&lt;div&gt;Sicherstellung&lt;/div&gt;" style="shape=process;whiteSpace=wrap;html=1;backgroundOutline=1;fillColor=#d5e8d4;strokeColor=#82b366;" parent="1" vertex="1">
          <mxGeometry x="1050" y="1440" width="200" height="60" as="geometry" />
        </mxCell>
        <mxCell id="rZ0vq1LoBwSU4AF1OaNH-1" value="ja" style="endArrow=classic;html=1;rounded=0;exitX=0.5;exitY=1;exitDx=0;exitDy=0;entryX=0.5;entryY=0;entryDx=0;entryDy=0;" parent="1" source="aHFnWSv0snW7f39dgXMF-51" target="aHFnWSv0snW7f39dgXMF-8" edge="1">
          <mxGeometry width="50" height="50" relative="1" as="geometry">
            <mxPoint x="1330" y="1540" as="sourcePoint" />
            <mxPoint x="1380" y="1490" as="targetPoint" />
            <Array as="points">
              <mxPoint x="1630" y="1560" />
              <mxPoint x="1470" y="1560" />
            </Array>
          </mxGeometry>
        </mxCell>
        <mxCell id="rZ0vq1LoBwSU4AF1OaNH-2" value="nein" style="edgeStyle=orthogonalEdgeStyle;rounded=0;orthogonalLoop=1;jettySize=auto;html=1;" parent="1" source="rZ0vq1LoBwSU4AF1OaNH-4" target="rZ0vq1LoBwSU4AF1OaNH-5" edge="1">
          <mxGeometry relative="1" as="geometry" />
        </mxCell>
        <mxCell id="rZ0vq1LoBwSU4AF1OaNH-3" value="ja" style="edgeStyle=orthogonalEdgeStyle;rounded=0;orthogonalLoop=1;jettySize=auto;html=1;" parent="1" source="rZ0vq1LoBwSU4AF1OaNH-4" target="rZ0vq1LoBwSU4AF1OaNH-6" edge="1">
          <mxGeometry relative="1" as="geometry" />
        </mxCell>
        <mxCell id="rZ0vq1LoBwSU4AF1OaNH-4" value="Fahrzeug vor Ort" style="rhombus;whiteSpace=wrap;html=1;fillColor=#d5e8d4;strokeColor=#82b366;" parent="1" vertex="1">
          <mxGeometry x="1830" y="2280" width="200" height="80" as="geometry" />
        </mxCell>
        <mxCell id="rZ0vq1LoBwSU4AF1OaNH-5" value="ggf. Bußgeld /&amp;nbsp;&lt;font style=&quot;font-size: 9px;&quot;&gt;Sondernutzungsgebühr&lt;/font&gt;" style="rounded=1;whiteSpace=wrap;html=1;fillColor=#dae8fc;strokeColor=#6c8ebf;" parent="1" vertex="1">
          <mxGeometry x="2150" y="2290" width="120" height="60" as="geometry" />
        </mxCell>
        <mxCell id="rZ0vq1LoBwSU4AF1OaNH-6" value="Abschleppauftrag&lt;div&gt;basierend auf MR14&lt;/div&gt;" style="shape=process;whiteSpace=wrap;html=1;backgroundOutline=1;fillColor=#d5e8d4;strokeColor=#82b366;" parent="1" vertex="1">
          <mxGeometry x="1830" y="2450" width="200" height="60" as="geometry" />
        </mxCell>
        <mxCell id="rZ0vq1LoBwSU4AF1OaNH-7" value="" style="endArrow=classic;html=1;rounded=0;entryX=0.5;entryY=0;entryDx=0;entryDy=0;exitX=0.5;exitY=1;exitDx=0;exitDy=0;" parent="1" source="0-Z-aFg5bhClTdzB51h3-28" target="rZ0vq1LoBwSU4AF1OaNH-4" edge="1">
          <mxGeometry width="50" height="50" relative="1" as="geometry">
            <mxPoint x="1920" y="2220" as="sourcePoint" />
            <mxPoint x="1990" y="2140" as="targetPoint" />
          </mxGeometry>
        </mxCell>
        <mxCell id="rZ0vq1LoBwSU4AF1OaNH-8" value="" style="endArrow=classic;html=1;rounded=0;exitX=1;exitY=0.5;exitDx=0;exitDy=0;" parent="1" source="gvst5AF2a0xxXVvo7113-43" target="0-Z-aFg5bhClTdzB51h3-37" edge="1">
          <mxGeometry width="50" height="50" relative="1" as="geometry">
            <mxPoint x="2480" y="1890" as="sourcePoint" />
            <mxPoint x="2530" y="1840" as="targetPoint" />
          </mxGeometry>
        </mxCell>
        <mxCell id="rZ0vq1LoBwSU4AF1OaNH-10" value="Sonderbereich&lt;div&gt;Autohändler&lt;/div&gt;&lt;div&gt;(Testbereich)&lt;/div&gt;" style="endArrow=classic;html=1;rounded=0;exitX=1;exitY=0.5;exitDx=0;exitDy=0;exitPerimeter=0;entryX=0;entryY=0.5;entryDx=0;entryDy=0;" parent="1" source="cveXAAd5tMvSlIGVYIJ7-2" target="rZ0vq1LoBwSU4AF1OaNH-11" edge="1">
          <mxGeometry x="-0.3069" width="50" height="50" relative="1" as="geometry">
            <mxPoint x="2310" y="1390" as="sourcePoint" />
            <mxPoint x="2430" y="1040" as="targetPoint" />
            <Array as="points">
              <mxPoint x="2030" y="1600" />
              <mxPoint x="2030" y="1400" />
              <mxPoint x="2350" y="1400" />
              <mxPoint x="2350" y="1040" />
            </Array>
            <mxPoint as="offset" />
          </mxGeometry>
        </mxCell>
        <mxCell id="rZ0vq1LoBwSU4AF1OaNH-13" value="ja" style="edgeStyle=orthogonalEdgeStyle;rounded=0;orthogonalLoop=1;jettySize=auto;html=1;" parent="1" source="rZ0vq1LoBwSU4AF1OaNH-11" target="rZ0vq1LoBwSU4AF1OaNH-12" edge="1">
          <mxGeometry relative="1" as="geometry" />
        </mxCell>
        <mxCell id="rZ0vq1LoBwSU4AF1OaNH-27" value="nein" style="edgeStyle=orthogonalEdgeStyle;rounded=0;orthogonalLoop=1;jettySize=auto;html=1;" parent="1" source="rZ0vq1LoBwSU4AF1OaNH-11" target="rZ0vq1LoBwSU4AF1OaNH-26" edge="1">
          <mxGeometry relative="1" as="geometry" />
        </mxCell>
        <mxCell id="rZ0vq1LoBwSU4AF1OaNH-11" value="Verursacher vor Ort&lt;div&gt;feststellbar&lt;/div&gt;" style="rhombus;whiteSpace=wrap;html=1;" parent="1" vertex="1">
          <mxGeometry x="2470" y="1000" width="240" height="80" as="geometry" />
        </mxCell>
        <mxCell id="rZ0vq1LoBwSU4AF1OaNH-15" value="" style="edgeStyle=orthogonalEdgeStyle;rounded=0;orthogonalLoop=1;jettySize=auto;html=1;" parent="1" source="rZ0vq1LoBwSU4AF1OaNH-12" target="rZ0vq1LoBwSU4AF1OaNH-14" edge="1">
          <mxGeometry relative="1" as="geometry" />
        </mxCell>
        <mxCell id="rZ0vq1LoBwSU4AF1OaNH-12" value="Personalienermittlung" style="rounded=1;whiteSpace=wrap;html=1;" parent="1" vertex="1">
          <mxGeometry x="2850" y="1010" width="120" height="60" as="geometry" />
        </mxCell>
        <mxCell id="rZ0vq1LoBwSU4AF1OaNH-17" value="" style="edgeStyle=orthogonalEdgeStyle;rounded=0;orthogonalLoop=1;jettySize=auto;html=1;entryX=0;entryY=0.5;entryDx=0;entryDy=0;" parent="1" source="rZ0vq1LoBwSU4AF1OaNH-14" target="rZ0vq1LoBwSU4AF1OaNH-16" edge="1">
          <mxGeometry relative="1" as="geometry">
            <Array as="points">
              <mxPoint x="3230" y="1040" />
              <mxPoint x="3230" y="960" />
            </Array>
          </mxGeometry>
        </mxCell>
        <mxCell id="rZ0vq1LoBwSU4AF1OaNH-19" value="" style="edgeStyle=orthogonalEdgeStyle;rounded=0;orthogonalLoop=1;jettySize=auto;html=1;entryX=0;entryY=0.5;entryDx=0;entryDy=0;" parent="1" source="rZ0vq1LoBwSU4AF1OaNH-14" target="rZ0vq1LoBwSU4AF1OaNH-18" edge="1">
          <mxGeometry relative="1" as="geometry">
            <Array as="points">
              <mxPoint x="3230" y="1040" />
              <mxPoint x="3230" y="1110" />
            </Array>
          </mxGeometry>
        </mxCell>
        <mxCell id="rZ0vq1LoBwSU4AF1OaNH-14" value="mündl. Beseitigungs-&lt;div&gt;aufforderung&lt;/div&gt;" style="rounded=1;whiteSpace=wrap;html=1;" parent="1" vertex="1">
          <mxGeometry x="3050" y="1010" width="120" height="60" as="geometry" />
        </mxCell>
        <mxCell id="rZ0vq1LoBwSU4AF1OaNH-21" value="" style="edgeStyle=orthogonalEdgeStyle;rounded=0;orthogonalLoop=1;jettySize=auto;html=1;" parent="1" source="rZ0vq1LoBwSU4AF1OaNH-16" target="rZ0vq1LoBwSU4AF1OaNH-20" edge="1">
          <mxGeometry relative="1" as="geometry" />
        </mxCell>
        <mxCell id="rZ0vq1LoBwSU4AF1OaNH-16" value="Verw.V:&lt;div&gt;Sondernutzung&lt;/div&gt;" style="rounded=1;whiteSpace=wrap;html=1;" parent="1" vertex="1">
          <mxGeometry x="3270" y="930" width="120" height="60" as="geometry" />
        </mxCell>
        <mxCell id="rZ0vq1LoBwSU4AF1OaNH-18" value="Bußgeldverfahren" style="whiteSpace=wrap;html=1;rounded=1;" parent="1" vertex="1">
          <mxGeometry x="3270" y="1080" width="120" height="60" as="geometry" />
        </mxCell>
        <mxCell id="rZ0vq1LoBwSU4AF1OaNH-23" value="" style="edgeStyle=orthogonalEdgeStyle;rounded=0;orthogonalLoop=1;jettySize=auto;html=1;" parent="1" source="rZ0vq1LoBwSU4AF1OaNH-20" target="rZ0vq1LoBwSU4AF1OaNH-22" edge="1">
          <mxGeometry relative="1" as="geometry" />
        </mxCell>
        <mxCell id="rZ0vq1LoBwSU4AF1OaNH-25" value="nein" style="edgeStyle=orthogonalEdgeStyle;rounded=0;orthogonalLoop=1;jettySize=auto;html=1;" parent="1" source="rZ0vq1LoBwSU4AF1OaNH-20" target="rZ0vq1LoBwSU4AF1OaNH-24" edge="1">
          <mxGeometry relative="1" as="geometry" />
        </mxCell>
        <mxCell id="rZ0vq1LoBwSU4AF1OaNH-20" value="Gewerblicher Akteur" style="rhombus;whiteSpace=wrap;html=1;rounded=1;" parent="1" vertex="1">
          <mxGeometry x="3510" y="920" width="200" height="80" as="geometry" />
        </mxCell>
        <mxCell id="rZ0vq1LoBwSU4AF1OaNH-22" value="schriftl. Beseitigungs-&lt;div&gt;aufforderung mit Zwangsgeld?&lt;/div&gt;" style="rounded=1;whiteSpace=wrap;html=1;" parent="1" vertex="1">
          <mxGeometry x="3830" y="930" width="120" height="60" as="geometry" />
        </mxCell>
        <mxCell id="rZ0vq1LoBwSU4AF1OaNH-24" value="" style="rounded=1;whiteSpace=wrap;html=1;" parent="1" vertex="1">
          <mxGeometry x="3550" y="770" width="120" height="60" as="geometry" />
        </mxCell>
        <mxCell id="rZ0vq1LoBwSU4AF1OaNH-29" value="" style="edgeStyle=orthogonalEdgeStyle;rounded=0;orthogonalLoop=1;jettySize=auto;html=1;" parent="1" source="rZ0vq1LoBwSU4AF1OaNH-26" target="rZ0vq1LoBwSU4AF1OaNH-28" edge="1">
          <mxGeometry relative="1" as="geometry" />
        </mxCell>
        <mxCell id="rZ0vq1LoBwSU4AF1OaNH-26" value="unmittelbare Ausführung&lt;div&gt;Abschleppen&lt;/div&gt;" style="rounded=1;whiteSpace=wrap;html=1;" parent="1" vertex="1">
          <mxGeometry x="2530" y="1170" width="120" height="60" as="geometry" />
        </mxCell>
        <mxCell id="rZ0vq1LoBwSU4AF1OaNH-32" value="" style="edgeStyle=orthogonalEdgeStyle;rounded=0;orthogonalLoop=1;jettySize=auto;html=1;" parent="1" source="rZ0vq1LoBwSU4AF1OaNH-28" target="rZ0vq1LoBwSU4AF1OaNH-31" edge="1">
          <mxGeometry relative="1" as="geometry" />
        </mxCell>
        <mxCell id="rZ0vq1LoBwSU4AF1OaNH-28" value="Verantwortlicher taucht vor Ort auf, bevor Fahrzeug entfernt wurde" style="rhombus;whiteSpace=wrap;html=1;rounded=1;" parent="1" vertex="1">
          <mxGeometry x="2750" y="1160" width="200" height="80" as="geometry" />
        </mxCell>
        <mxCell id="rZ0vq1LoBwSU4AF1OaNH-30" value="ja" style="endArrow=classic;html=1;rounded=0;exitX=0.5;exitY=0;exitDx=0;exitDy=0;entryX=0.5;entryY=1;entryDx=0;entryDy=0;" parent="1" source="rZ0vq1LoBwSU4AF1OaNH-28" target="rZ0vq1LoBwSU4AF1OaNH-12" edge="1">
          <mxGeometry width="50" height="50" relative="1" as="geometry">
            <mxPoint x="2860" y="1150" as="sourcePoint" />
            <mxPoint x="2910" y="1100" as="targetPoint" />
            <Array as="points">
              <mxPoint x="2850" y="1120" />
              <mxPoint x="2910" y="1120" />
            </Array>
          </mxGeometry>
        </mxCell>
        <mxCell id="rZ0vq1LoBwSU4AF1OaNH-31" value="Abschleppauftrag&lt;div&gt;Sicherstellung&lt;/div&gt;" style="shape=process;whiteSpace=wrap;html=1;backgroundOutline=1;rounded=1;fillColor=#d5e8d4;strokeColor=#82b366;" parent="1" vertex="1">
          <mxGeometry x="2750" y="1320" width="200" height="80" as="geometry" />
        </mxCell>
        <mxCell id="rZ0vq1LoBwSU4AF1OaNH-33" value="Prüfung Fahrzeug bekannt" style="strokeWidth=2;html=1;shape=mxgraph.flowchart.decision;whiteSpace=wrap;fillColor=#d5e8d4;strokeColor=#82b366;" parent="1" vertex="1">
          <mxGeometry x="1270" y="360" width="240" height="80" as="geometry" />
        </mxCell>
        <mxCell id="rZ0vq1LoBwSU4AF1OaNH-36" value="" style="edgeStyle=orthogonalEdgeStyle;rounded=0;orthogonalLoop=1;jettySize=auto;html=1;" parent="1" source="rZ0vq1LoBwSU4AF1OaNH-34" target="rZ0vq1LoBwSU4AF1OaNH-35" edge="1">
          <mxGeometry relative="1" as="geometry" />
        </mxCell>
        <mxCell id="rZ0vq1LoBwSU4AF1OaNH-34" value="Bürgermeldung&lt;div&gt;via Meldemichel&lt;/div&gt;" style="strokeWidth=2;html=1;shape=mxgraph.flowchart.document2;whiteSpace=wrap;size=0.25;" parent="1" vertex="1">
          <mxGeometry x="950" y="80" width="120" height="60" as="geometry" />
        </mxCell>
        <mxCell id="rZ0vq1LoBwSU4AF1OaNH-38" value="" style="edgeStyle=orthogonalEdgeStyle;rounded=0;orthogonalLoop=1;jettySize=auto;html=1;" parent="1" source="rZ0vq1LoBwSU4AF1OaNH-35" target="rZ0vq1LoBwSU4AF1OaNH-37" edge="1">
          <mxGeometry relative="1" as="geometry" />
        </mxCell>
        <mxCell id="rZ0vq1LoBwSU4AF1OaNH-35" value="Benachrichtigung durch MR? via Mail" style="rounded=1;whiteSpace=wrap;html=1;strokeWidth=2;" parent="1" vertex="1">
          <mxGeometry x="910" y="200" width="200" height="80" as="geometry" />
        </mxCell>
        <mxCell id="rZ0vq1LoBwSU4AF1OaNH-45" style="edgeStyle=orthogonalEdgeStyle;rounded=0;orthogonalLoop=1;jettySize=auto;html=1;exitX=0;exitY=0.5;exitDx=0;exitDy=0;startArrow=classic;startFill=1;endArrow=none;endFill=0;" parent="1" source="rZ0vq1LoBwSU4AF1OaNH-37" target="rZ0vq1LoBwSU4AF1OaNH-44" edge="1">
          <mxGeometry relative="1" as="geometry" />
        </mxCell>
        <mxCell id="rZ0vq1LoBwSU4AF1OaNH-37" value="Meldungseingang im Postfach&lt;div&gt;abgemeldete-fahrzeuge@&lt;/div&gt;" style="rounded=1;whiteSpace=wrap;html=1;strokeWidth=2;" parent="1" vertex="1">
          <mxGeometry x="910" y="360" width="200" height="80" as="geometry" />
        </mxCell>
        <mxCell id="rZ0vq1LoBwSU4AF1OaNH-39" value="" style="endArrow=classic;html=1;rounded=0;exitX=1;exitY=0.5;exitDx=0;exitDy=0;" parent="1" source="rZ0vq1LoBwSU4AF1OaNH-37" target="rZ0vq1LoBwSU4AF1OaNH-33" edge="1">
          <mxGeometry width="50" height="50" relative="1" as="geometry">
            <mxPoint x="1170" y="490" as="sourcePoint" />
            <mxPoint x="1220" y="440" as="targetPoint" />
          </mxGeometry>
        </mxCell>
        <mxCell id="rZ0vq1LoBwSU4AF1OaNH-42" value="Anlage neuer Meldung im System" style="strokeWidth=2;html=1;shape=mxgraph.flowchart.terminator;whiteSpace=wrap;fillColor=#d5e8d4;strokeColor=#82b366;" parent="1" vertex="1">
          <mxGeometry x="1590" y="360" width="160" height="80" as="geometry" />
        </mxCell>
        <mxCell id="rZ0vq1LoBwSU4AF1OaNH-43" value="ja" style="edgeStyle=orthogonalEdgeStyle;rounded=0;orthogonalLoop=1;jettySize=auto;html=1;exitX=1;exitY=0.5;exitDx=0;exitDy=0;exitPerimeter=0;entryX=0;entryY=0.5;entryDx=0;entryDy=0;entryPerimeter=0;" parent="1" source="rZ0vq1LoBwSU4AF1OaNH-33" target="rZ0vq1LoBwSU4AF1OaNH-42" edge="1">
          <mxGeometry relative="1" as="geometry" />
        </mxCell>
        <mxCell id="rZ0vq1LoBwSU4AF1OaNH-44" value="Bürgermeldung via&lt;div&gt;E-Mail&lt;/div&gt;" style="strokeWidth=2;html=1;shape=mxgraph.flowchart.document2;whiteSpace=wrap;size=0.25;" parent="1" vertex="1">
          <mxGeometry x="670" y="80" width="120" height="60" as="geometry" />
        </mxCell>
        <mxCell id="rZ0vq1LoBwSU4AF1OaNH-49" value="" style="edgeStyle=orthogonalEdgeStyle;rounded=0;orthogonalLoop=1;jettySize=auto;html=1;" parent="1" source="rZ0vq1LoBwSU4AF1OaNH-46" target="rZ0vq1LoBwSU4AF1OaNH-48" edge="1">
          <mxGeometry relative="1" as="geometry" />
        </mxCell>
        <mxCell id="rZ0vq1LoBwSU4AF1OaNH-46" value="Bürgermeldung via&lt;div&gt;SRH-App&lt;/div&gt;" style="strokeWidth=2;html=1;shape=mxgraph.flowchart.document2;whiteSpace=wrap;size=0.25;" parent="1" vertex="1">
          <mxGeometry x="490" y="80" width="120" height="60" as="geometry" />
        </mxCell>
        <mxCell id="rZ0vq1LoBwSU4AF1OaNH-48" value="Benachrichtigung durch SRH" style="rounded=1;whiteSpace=wrap;html=1;strokeWidth=2;" parent="1" vertex="1">
          <mxGeometry x="490" y="220" width="120" height="60" as="geometry" />
        </mxCell>
        <mxCell id="rZ0vq1LoBwSU4AF1OaNH-50" value="" style="endArrow=classic;html=1;rounded=0;exitX=0.5;exitY=1;exitDx=0;exitDy=0;entryX=0;entryY=0.5;entryDx=0;entryDy=0;" parent="1" source="rZ0vq1LoBwSU4AF1OaNH-48" target="rZ0vq1LoBwSU4AF1OaNH-37" edge="1">
          <mxGeometry width="50" height="50" relative="1" as="geometry">
            <mxPoint x="610" y="300" as="sourcePoint" />
            <mxPoint x="660" y="250" as="targetPoint" />
            <Array as="points">
              <mxPoint x="550" y="400" />
            </Array>
          </mxGeometry>
        </mxCell>
        <mxCell id="rZ0vq1LoBwSU4AF1OaNH-54" value="" style="edgeStyle=orthogonalEdgeStyle;rounded=0;orthogonalLoop=1;jettySize=auto;html=1;" parent="1" source="rZ0vq1LoBwSU4AF1OaNH-52" target="rZ0vq1LoBwSU4AF1OaNH-53" edge="1">
          <mxGeometry relative="1" as="geometry" />
        </mxCell>
        <mxCell id="rZ0vq1LoBwSU4AF1OaNH-52" value="Polizeibericht&lt;div&gt;via Behördenpost&lt;/div&gt;" style="strokeWidth=2;html=1;shape=mxgraph.flowchart.document2;whiteSpace=wrap;size=0.25;" parent="1" vertex="1">
          <mxGeometry x="290" y="80" width="120" height="60" as="geometry" />
        </mxCell>
        <mxCell id="rZ0vq1LoBwSU4AF1OaNH-55" style="edgeStyle=orthogonalEdgeStyle;rounded=0;orthogonalLoop=1;jettySize=auto;html=1;exitX=0.5;exitY=1;exitDx=0;exitDy=0;entryX=0;entryY=0.5;entryDx=0;entryDy=0;" parent="1" source="rZ0vq1LoBwSU4AF1OaNH-53" target="rZ0vq1LoBwSU4AF1OaNH-37" edge="1">
          <mxGeometry relative="1" as="geometry" />
        </mxCell>
        <mxCell id="rZ0vq1LoBwSU4AF1OaNH-53" value="Scannen im BZA&lt;div&gt;per Mail&lt;/div&gt;" style="rounded=1;whiteSpace=wrap;html=1;strokeWidth=2;" parent="1" vertex="1">
          <mxGeometry x="290" y="220" width="120" height="60" as="geometry" />
        </mxCell>
        <mxCell id="rZ0vq1LoBwSU4AF1OaNH-56" value="Polizeibericht&lt;div&gt;via E-Mail&lt;/div&gt;" style="strokeWidth=2;html=1;shape=mxgraph.flowchart.document2;whiteSpace=wrap;size=0.25;" parent="1" vertex="1">
          <mxGeometry x="110" y="80" width="120" height="60" as="geometry" />
        </mxCell>
        <mxCell id="rZ0vq1LoBwSU4AF1OaNH-57" value="" style="endArrow=classic;html=1;rounded=0;entryX=0;entryY=0.5;entryDx=0;entryDy=0;" parent="1" source="rZ0vq1LoBwSU4AF1OaNH-56" target="rZ0vq1LoBwSU4AF1OaNH-37" edge="1">
          <mxGeometry width="50" height="50" relative="1" as="geometry">
            <mxPoint x="490" y="380" as="sourcePoint" />
            <mxPoint x="540" y="330" as="targetPoint" />
            <Array as="points">
              <mxPoint x="170" y="400" />
            </Array>
          </mxGeometry>
        </mxCell>
        <mxCell id="rZ0vq1LoBwSU4AF1OaNH-61" value="" style="edgeStyle=orthogonalEdgeStyle;rounded=0;orthogonalLoop=1;jettySize=auto;html=1;" parent="1" source="rZ0vq1LoBwSU4AF1OaNH-59" target="rZ0vq1LoBwSU4AF1OaNH-60" edge="1">
          <mxGeometry relative="1" as="geometry" />
        </mxCell>
        <mxCell id="rZ0vq1LoBwSU4AF1OaNH-59" value="Telefonische Meldungen" style="strokeWidth=2;html=1;shape=mxgraph.flowchart.document2;whiteSpace=wrap;size=0.25;" parent="1" vertex="1">
          <mxGeometry x="150" y="600" width="120" height="60" as="geometry" />
        </mxCell>
        <mxCell id="rZ0vq1LoBwSU4AF1OaNH-62" style="edgeStyle=orthogonalEdgeStyle;rounded=0;orthogonalLoop=1;jettySize=auto;html=1;exitX=0.5;exitY=0;exitDx=0;exitDy=0;entryX=0;entryY=0.5;entryDx=0;entryDy=0;" parent="1" source="rZ0vq1LoBwSU4AF1OaNH-60" target="rZ0vq1LoBwSU4AF1OaNH-37" edge="1">
          <mxGeometry relative="1" as="geometry" />
        </mxCell>
        <mxCell id="rZ0vq1LoBwSU4AF1OaNH-60" value="via AB oder persönliche Annahme&lt;div&gt;als Mails weiter&lt;/div&gt;" style="rounded=1;whiteSpace=wrap;html=1;strokeWidth=2;" parent="1" vertex="1">
          <mxGeometry x="150" y="460" width="120" height="60" as="geometry" />
        </mxCell>
        <mxCell id="rZ0vq1LoBwSU4AF1OaNH-64" style="edgeStyle=orthogonalEdgeStyle;rounded=0;orthogonalLoop=1;jettySize=auto;html=1;exitX=0.5;exitY=0;exitDx=0;exitDy=0;exitPerimeter=0;entryX=0;entryY=0.5;entryDx=0;entryDy=0;" parent="1" source="rZ0vq1LoBwSU4AF1OaNH-63" target="rZ0vq1LoBwSU4AF1OaNH-37" edge="1">
          <mxGeometry relative="1" as="geometry" />
        </mxCell>
        <mxCell id="rZ0vq1LoBwSU4AF1OaNH-63" value="Sonstige Meldungswege" style="strokeWidth=2;html=1;shape=mxgraph.flowchart.document2;whiteSpace=wrap;size=0.25;" parent="1" vertex="1">
          <mxGeometry x="350" y="600" width="120" height="60" as="geometry" />
        </mxCell>
        <mxCell id="rZ0vq1LoBwSU4AF1OaNH-65" value="Hinzufügen zu bekannter Meldung / Fahrzeug" style="strokeWidth=2;html=1;shape=mxgraph.flowchart.terminator;whiteSpace=wrap;fillColor=#d5e8d4;strokeColor=#82b366;" parent="1" vertex="1">
          <mxGeometry x="1590" y="240" width="160" height="80" as="geometry" />
        </mxCell>
        <mxCell id="rZ0vq1LoBwSU4AF1OaNH-66" value="nein" style="edgeStyle=orthogonalEdgeStyle;rounded=0;orthogonalLoop=1;jettySize=auto;html=1;exitX=0.5;exitY=0;exitDx=0;exitDy=0;exitPerimeter=0;entryX=0;entryY=0.5;entryDx=0;entryDy=0;entryPerimeter=0;" parent="1" source="rZ0vq1LoBwSU4AF1OaNH-33" target="rZ0vq1LoBwSU4AF1OaNH-65" edge="1">
          <mxGeometry x="-0.8571" relative="1" as="geometry">
            <mxPoint as="offset" />
          </mxGeometry>
        </mxCell>
        <mxCell id="rZ0vq1LoBwSU4AF1OaNH-69" style="edgeStyle=orthogonalEdgeStyle;rounded=0;orthogonalLoop=1;jettySize=auto;html=1;exitX=1;exitY=0.5;exitDx=0;exitDy=0;exitPerimeter=0;entryX=0;entryY=0.5;entryDx=0;entryDy=0;" parent="1" source="rZ0vq1LoBwSU4AF1OaNH-67" target="rZ0vq1LoBwSU4AF1OaNH-68" edge="1">
          <mxGeometry relative="1" as="geometry" />
        </mxCell>
        <mxCell id="rZ0vq1LoBwSU4AF1OaNH-67" value="Abarbeitung gemeldeter Fahrzeuge" style="strokeWidth=2;html=1;shape=mxgraph.flowchart.document2;whiteSpace=wrap;size=0.25;" parent="1" vertex="1">
          <mxGeometry x="790" y="560" width="160" height="80" as="geometry" />
        </mxCell>
        <mxCell id="rZ0vq1LoBwSU4AF1OaNH-70" style="edgeStyle=orthogonalEdgeStyle;rounded=0;orthogonalLoop=1;jettySize=auto;html=1;exitX=0.5;exitY=1;exitDx=0;exitDy=0;entryX=0.5;entryY=0;entryDx=0;entryDy=0;" parent="1" source="rZ0vq1LoBwSU4AF1OaNH-68" target="aHFnWSv0snW7f39dgXMF-36" edge="1">
          <mxGeometry relative="1" as="geometry" />
        </mxCell>
        <mxCell id="rZ0vq1LoBwSU4AF1OaNH-68" value="Außendienst vor Ort" style="rounded=1;whiteSpace=wrap;html=1;fillColor=#d5e8d4;strokeColor=#82b366;" parent="1" vertex="1">
          <mxGeometry x="1230" y="560" width="160" height="80" as="geometry" />
        </mxCell>
        <mxCell id="rZ0vq1LoBwSU4AF1OaNH-72" style="edgeStyle=orthogonalEdgeStyle;rounded=0;orthogonalLoop=1;jettySize=auto;html=1;exitX=0;exitY=0.5;exitDx=0;exitDy=0;exitPerimeter=0;entryX=1;entryY=0.5;entryDx=0;entryDy=0;" parent="1" source="rZ0vq1LoBwSU4AF1OaNH-71" target="rZ0vq1LoBwSU4AF1OaNH-68" edge="1">
          <mxGeometry relative="1" as="geometry" />
        </mxCell>
        <mxCell id="rZ0vq1LoBwSU4AF1OaNH-71" value="eigenständiger Fund" style="strokeWidth=2;html=1;shape=mxgraph.flowchart.document2;whiteSpace=wrap;size=0.25;" parent="1" vertex="1">
          <mxGeometry x="1590" y="560" width="160" height="80" as="geometry" />
        </mxCell>
        <mxCell id="rZ0vq1LoBwSU4AF1OaNH-75" style="edgeStyle=orthogonalEdgeStyle;rounded=0;orthogonalLoop=1;jettySize=auto;html=1;exitX=0.5;exitY=1;exitDx=0;exitDy=0;exitPerimeter=0;entryX=0.5;entryY=0;entryDx=0;entryDy=0;" parent="1" source="rZ0vq1LoBwSU4AF1OaNH-74" target="gvst5AF2a0xxXVvo7113-10" edge="1">
          <mxGeometry relative="1" as="geometry" />
        </mxCell>
        <mxCell id="rZ0vq1LoBwSU4AF1OaNH-76" value="" style="edgeStyle=orthogonalEdgeStyle;rounded=0;orthogonalLoop=1;jettySize=auto;html=1;" parent="1" source="rZ0vq1LoBwSU4AF1OaNH-74" target="gvst5AF2a0xxXVvo7113-10" edge="1">
          <mxGeometry relative="1" as="geometry" />
        </mxCell>
        <mxCell id="rZ0vq1LoBwSU4AF1OaNH-74" value="Anlage Vorgang" style="strokeWidth=2;html=1;shape=mxgraph.flowchart.delay;whiteSpace=wrap;fillColor=#d5e8d4;strokeColor=#82b366;" parent="1" vertex="1">
          <mxGeometry x="1580" y="1025" width="100" height="30" as="geometry" />
        </mxCell>
        <mxCell id="rZ0vq1LoBwSU4AF1OaNH-78" style="edgeStyle=orthogonalEdgeStyle;rounded=0;orthogonalLoop=1;jettySize=auto;html=1;exitX=0.5;exitY=1;exitDx=0;exitDy=0;exitPerimeter=0;entryX=0.5;entryY=0;entryDx=0;entryDy=0;" parent="1" source="rZ0vq1LoBwSU4AF1OaNH-77" target="aHFnWSv0snW7f39dgXMF-29" edge="1">
          <mxGeometry relative="1" as="geometry" />
        </mxCell>
        <mxCell id="rZ0vq1LoBwSU4AF1OaNH-77" value="Anlage Vorgang" style="strokeWidth=2;html=1;shape=mxgraph.flowchart.delay;whiteSpace=wrap;fillColor=#d5e8d4;strokeColor=#82b366;" parent="1" vertex="1">
          <mxGeometry x="1900" y="1025" width="100" height="30" as="geometry" />
        </mxCell>
        <mxCell id="rZ0vq1LoBwSU4AF1OaNH-79" value="Bußgeldverfahren / Sondernutzung" style="rounded=1;whiteSpace=wrap;html=1;fillColor=#dae8fc;strokeColor=#6c8ebf;" parent="1" vertex="1">
          <mxGeometry x="1070" y="1580" width="280" height="60" as="geometry" />
        </mxCell>
        <mxCell id="7TK1gLJYJRCepAhIFpsI-1" value="Fahrzeug vor Ort" style="rhombus;whiteSpace=wrap;html=1;fillColor=#d5e8d4;strokeColor=#82b366;" vertex="1" parent="1">
          <mxGeometry x="2450" y="2280" width="200" height="80" as="geometry" />
        </mxCell>
        <mxCell id="7TK1gLJYJRCepAhIFpsI-2" value="ja" style="edgeStyle=orthogonalEdgeStyle;rounded=0;orthogonalLoop=1;jettySize=auto;html=1;exitX=0.5;exitY=1;exitDx=0;exitDy=0;" edge="1" parent="1" target="7TK1gLJYJRCepAhIFpsI-3" source="7TK1gLJYJRCepAhIFpsI-1">
          <mxGeometry relative="1" as="geometry">
            <mxPoint x="2570" y="2370" as="sourcePoint" />
          </mxGeometry>
        </mxCell>
        <mxCell id="7TK1gLJYJRCepAhIFpsI-3" value="Abschleppauftrag&lt;div&gt;Sicherstellung&lt;/div&gt;" style="shape=process;whiteSpace=wrap;html=1;backgroundOutline=1;fillColor=#d5e8d4;strokeColor=#82b366;" vertex="1" parent="1">
          <mxGeometry x="2450" y="2450" width="200" height="60" as="geometry" />
        </mxCell>
        <mxCell id="7TK1gLJYJRCepAhIFpsI-5" value="new" style="shape=step;perimeter=stepPerimeter;whiteSpace=wrap;html=1;fixedSize=1;fillColor=#b0e3e6;strokeColor=#0e8088;" vertex="1" parent="1">
          <mxGeometry x="1850" y="1050" width="80" height="20" as="geometry" />
        </mxCell>
        <mxCell id="7TK1gLJYJRCepAhIFpsI-6" value="new" style="shape=step;perimeter=stepPerimeter;whiteSpace=wrap;html=1;fixedSize=1;fillColor=#b0e3e6;strokeColor=#0e8088;" vertex="1" parent="1">
          <mxGeometry x="1520" y="1047" width="80" height="20" as="geometry" />
        </mxCell>
        <mxCell id="7TK1gLJYJRCepAhIFpsI-8" value="Anlage Vorgang" style="strokeWidth=2;html=1;shape=mxgraph.flowchart.delay;whiteSpace=wrap;fillColor=#d5e8d4;strokeColor=#82b366;" vertex="1" parent="1">
          <mxGeometry x="820" y="785" width="100" height="30" as="geometry" />
        </mxCell>
        <mxCell id="7TK1gLJYJRCepAhIFpsI-4" value="registered" style="shape=step;perimeter=stepPerimeter;whiteSpace=wrap;html=1;fixedSize=1;fillColor=#b0e3e6;strokeColor=#0e8088;" vertex="1" parent="1">
          <mxGeometry x="750" y="810" width="110" height="20" as="geometry" />
        </mxCell>
        <mxCell id="7TK1gLJYJRCepAhIFpsI-11" value="towing-ordered" style="shape=step;perimeter=stepPerimeter;whiteSpace=wrap;html=1;fixedSize=1;fillColor=#b0e3e6;strokeColor=#0e8088;" vertex="1" parent="1">
          <mxGeometry x="950" y="1490" width="150" height="20" as="geometry" />
        </mxCell>
        <mxCell id="7TK1gLJYJRCepAhIFpsI-12" value="owner-removed" style="shape=step;perimeter=stepPerimeter;whiteSpace=wrap;html=1;fixedSize=1;fillColor=#b0e3e6;strokeColor=#0e8088;" vertex="1" parent="1">
          <mxGeometry x="990" y="1630" width="150" height="20" as="geometry" />
        </mxCell>
        <mxCell id="7TK1gLJYJRCepAhIFpsI-13" value="owner-removed" style="shape=step;perimeter=stepPerimeter;whiteSpace=wrap;html=1;fixedSize=1;fillColor=#b0e3e6;strokeColor=#0e8088;" vertex="1" parent="1">
          <mxGeometry x="1315" y="1950" width="150" height="20" as="geometry" />
        </mxCell>
        <mxCell id="7TK1gLJYJRCepAhIFpsI-14" value="krwg-waiting" style="shape=step;perimeter=stepPerimeter;whiteSpace=wrap;html=1;fixedSize=1;fillColor=#b0e3e6;strokeColor=#0e8088;" vertex="1" parent="1">
          <mxGeometry x="2240" y="1940" width="150" height="20" as="geometry" />
        </mxCell>
        <mxCell id="7TK1gLJYJRCepAhIFpsI-15" value="towing-ordered" style="shape=step;perimeter=stepPerimeter;whiteSpace=wrap;html=1;fixedSize=1;fillColor=#b0e3e6;strokeColor=#0e8088;" vertex="1" parent="1">
          <mxGeometry x="1770" y="2500" width="150" height="20" as="geometry" />
        </mxCell>
        <mxCell id="7TK1gLJYJRCepAhIFpsI-16" value="investigation-completed" style="shape=step;perimeter=stepPerimeter;whiteSpace=wrap;html=1;fixedSize=1;fillColor=#b0e3e6;strokeColor=#0e8088;" vertex="1" parent="1">
          <mxGeometry x="1750" y="2180" width="180" height="20" as="geometry" />
        </mxCell>
        <mxCell id="7TK1gLJYJRCepAhIFpsI-17" value="Vorgang abschließen" style="strokeWidth=2;html=1;shape=mxgraph.flowchart.terminator;whiteSpace=wrap;fillColor=#f8cecc;strokeColor=#b85450;" vertex="1" parent="1">
          <mxGeometry x="2715" y="2360" width="100" height="60" as="geometry" />
        </mxCell>
        <mxCell id="7TK1gLJYJRCepAhIFpsI-18" value="nein" style="edgeStyle=orthogonalEdgeStyle;rounded=0;orthogonalLoop=1;jettySize=auto;html=1;exitX=1;exitY=0.5;exitDx=0;exitDy=0;entryX=0.5;entryY=0;entryDx=0;entryDy=0;entryPerimeter=0;" edge="1" parent="1" source="7TK1gLJYJRCepAhIFpsI-1" target="7TK1gLJYJRCepAhIFpsI-17">
          <mxGeometry x="-0.7419" relative="1" as="geometry">
            <mxPoint as="offset" />
          </mxGeometry>
        </mxCell>
        <mxCell id="7TK1gLJYJRCepAhIFpsI-19" value="no-identification-no-cost" style="shape=step;perimeter=stepPerimeter;whiteSpace=wrap;html=1;fixedSize=1;fillColor=#b0e3e6;strokeColor=#0e8088;" vertex="1" parent="1">
          <mxGeometry x="2715" y="2410" width="180" height="20" as="geometry" />
        </mxCell>
        <mxCell id="7TK1gLJYJRCepAhIFpsI-20" value="sog-waiting" style="shape=step;perimeter=stepPerimeter;whiteSpace=wrap;html=1;fixedSize=1;fillColor=#b0e3e6;strokeColor=#0e8088;" vertex="1" parent="1">
          <mxGeometry x="2540" y="1960" width="150" height="20" as="geometry" />
        </mxCell>
        <mxCell id="7TK1gLJYJRCepAhIFpsI-21" value="sog-waiting" style="shape=step;perimeter=stepPerimeter;whiteSpace=wrap;html=1;fixedSize=1;fillColor=#b0e3e6;strokeColor=#0e8088;" vertex="1" parent="1">
          <mxGeometry x="2760" y="1820" width="150" height="20" as="geometry" />
        </mxCell>
        <mxCell id="7TK1gLJYJRCepAhIFpsI-22" value="investigation-completed" style="shape=step;perimeter=stepPerimeter;whiteSpace=wrap;html=1;fixedSize=1;fillColor=#b0e3e6;strokeColor=#0e8088;" vertex="1" parent="1">
          <mxGeometry x="3050" y="1820" width="180" height="20" as="geometry" />
        </mxCell>
        <mxCell id="7TK1gLJYJRCepAhIFpsI-23" value="towing-ordered" style="shape=step;perimeter=stepPerimeter;whiteSpace=wrap;html=1;fixedSize=1;fillColor=#b0e3e6;strokeColor=#0e8088;" vertex="1" parent="1">
          <mxGeometry x="3050" y="2120" width="150" height="20" as="geometry" />
        </mxCell>
        <mxCell id="7TK1gLJYJRCepAhIFpsI-38" value="" style="group" vertex="1" connectable="0" parent="1">
          <mxGeometry x="2760" y="40" width="1680" height="480" as="geometry" />
        </mxCell>
        <mxCell id="7TK1gLJYJRCepAhIFpsI-37" value="" style="rounded=0;whiteSpace=wrap;html=1;fillColor=none;" vertex="1" parent="7TK1gLJYJRCepAhIFpsI-38">
          <mxGeometry width="1680" height="480" as="geometry" />
        </mxCell>
        <mxCell id="7TK1gLJYJRCepAhIFpsI-25" value="&lt;font style=&quot;font-size: 48px;&quot;&gt;Prozessabbildung&lt;/font&gt;&lt;div&gt;&lt;b&gt;&lt;font style=&quot;font-size: 48px;&quot;&gt;Bearbeitung nicht zugelassener oder nicht betriebsbereiter Fahrzeuge&lt;/font&gt;&lt;/b&gt;&lt;/div&gt;" style="text;html=1;align=left;verticalAlign=middle;whiteSpace=wrap;rounded=0;" vertex="1" parent="7TK1gLJYJRCepAhIFpsI-38">
          <mxGeometry x="40" y="40" width="1640" height="120" as="geometry" />
        </mxCell>
        <mxCell id="7TK1gLJYJRCepAhIFpsI-26" value="Zuständig:&lt;div&gt;VS42&lt;/div&gt;" style="ellipse;shape=cloud;whiteSpace=wrap;html=1;fillColor=#d5e8d4;strokeColor=#82b366;" vertex="1" parent="7TK1gLJYJRCepAhIFpsI-38">
          <mxGeometry x="40" y="240" width="120" height="80" as="geometry" />
        </mxCell>
        <mxCell id="7TK1gLJYJRCepAhIFpsI-28" value="&lt;b&gt;&lt;u&gt;Legende&lt;/u&gt;&lt;/b&gt;" style="text;html=1;align=left;verticalAlign=middle;whiteSpace=wrap;rounded=0;" vertex="1" parent="7TK1gLJYJRCepAhIFpsI-38">
          <mxGeometry x="40" y="180" width="60" height="30" as="geometry" />
        </mxCell>
        <mxCell id="7TK1gLJYJRCepAhIFpsI-29" value="Zuständig:&lt;div&gt;MR14&lt;/div&gt;" style="ellipse;shape=cloud;whiteSpace=wrap;html=1;fillColor=#dae8fc;strokeColor=#6c8ebf;" vertex="1" parent="7TK1gLJYJRCepAhIFpsI-38">
          <mxGeometry x="40" y="360" width="120" height="80" as="geometry" />
        </mxCell>
        <mxCell id="7TK1gLJYJRCepAhIFpsI-31" value="Entscheidung" style="rhombus;whiteSpace=wrap;html=1;" vertex="1" parent="7TK1gLJYJRCepAhIFpsI-38">
          <mxGeometry x="240" y="240" width="200" height="80" as="geometry" />
        </mxCell>
        <mxCell id="7TK1gLJYJRCepAhIFpsI-32" value="Aktivität" style="rounded=1;whiteSpace=wrap;html=1;" vertex="1" parent="7TK1gLJYJRCepAhIFpsI-38">
          <mxGeometry x="240" y="370" width="200" height="60" as="geometry" />
        </mxCell>
        <mxCell id="7TK1gLJYJRCepAhIFpsI-35" value="Sub-Prozess&lt;div&gt;(siehe 2. Seite)&lt;/div&gt;" style="shape=process;whiteSpace=wrap;html=1;backgroundOutline=1;rounded=1;" vertex="1" parent="7TK1gLJYJRCepAhIFpsI-38">
          <mxGeometry x="560" y="240" width="200" height="80" as="geometry" />
        </mxCell>
        <mxCell id="7TK1gLJYJRCepAhIFpsI-36" value="Status im FV" style="shape=step;perimeter=stepPerimeter;whiteSpace=wrap;html=1;fixedSize=1;fillColor=#b0e3e6;strokeColor=#0e8088;" vertex="1" parent="7TK1gLJYJRCepAhIFpsI-38">
          <mxGeometry x="560" y="390" width="180" height="20" as="geometry" />
        </mxCell>
      </root>
    </mxGraphModel>
  </diagram>
</mxfile>
